<?xml version="1.0" standalone="no"?>
<!DOCTYPE svg PUBLIC "-//W3C//DTD SVG 20010904//EN"
 "http://www.w3.org/TR/2001/REC-SVG-20010904/DTD/svg10.dtd">
<svg version="1.0" xmlns="http://www.w3.org/2000/svg"
 width="1078.000000pt" height="1078.000000pt" viewBox="0 0 1078.000000 1078.000000"
 preserveAspectRatio="xMidYMid meet">
<metadata>
Created by potrace 1.16, written by Peter Selinger 2001-2019
</metadata>
<g transform="translate(0.000000,1078.000000) scale(0.100000,-0.100000)"
fill="#000000" stroke="none">
<path fill="#000000" stroke="none" d="M1243 10363 c-22 -54 -24 -74 -13 -129
51 -243 250 -381 609 -421 179 -20 327 -11 701 42 52 7 133 19 180 25 47 6
126 18 176 26 125 19 428 19 514 -1 76 -18 179 -53 200 -70 8 -6 33 -20 54
-30 53 -27 223 -195 272 -270 110 -167 191 -405 210 -616 8 -80 1 -85 -77 -59
-153 50 -166 53 -344 80 -107 17 -329 12 -465 -10 -125 -21 -300 -66 -375 -97
-22 -9 -60 -25 -85 -35 -39 -17 -101 -48 -215 -107 -52 -27 -197 -126 -264
-180 -140 -112 -290 -269 -404 -422 -40 -53 -68 -81 -95 -92 -20 -8 -62 -25
-92 -37 -30 -12 -74 -35 -98 -51 -24 -16 -46 -29 -49 -29 -3 0 -27 -17 -52
-37 -232 -188 -366 -422 -399 -698 -11 -87 -10 -140 3 -255 6 -54 40 -175 55
-195 4 -5 11 -21 15 -35 4 -14 34 -65 67 -114 34 -52 56 -96 53 -104 -3 -8
-12 -69 -20 -136 -8 -67 -19 -152 -24 -191 -6 -38 -13 -161 -17 -273 -8 -244
-10 -249 -80 -204 -120 76 -286 131 -400 132 -55 0 -91 -18 -81 -42 4 -12 30
-17 114 -21 139 -7 252 -48 375 -136 62 -45 68 -60 68 -167 0 -63 0 -64 -27
-64 -16 0 -50 7 -78 16 -143 46 -585 -6 -585 -68 0 -22 40 -24 98 -4 38 14
166 32 282 40 69 5 214 -18 273 -43 43 -18 45 -22 52 -70 4 -27 4 -55 0 -61
-3 -5 -36 -10 -73 -10 -134 0 -292 -82 -445 -229 -54 -53 -69 -82 -47 -96 6
-3 46 27 90 67 85 77 228 170 289 189 20 5 64 13 98 16 93 8 103 -1 132 -128
22 -100 32 -130 73 -229 77 -182 176 -287 324 -340 86 -31 282 -38 424 -14 58
9 123 18 145 18 36 1 41 -2 63 -41 52 -94 50 -278 -5 -436 -44 -129 -48 -146
-36 -158 15 -15 32 -4 45 29 87 217 111 403 68 525 -11 32 -26 67 -33 78 -16
26 6 44 66 53 41 7 43 6 89 -44 51 -55 108 -149 133 -220 14 -40 14 -51 0
-120 -32 -146 -35 -188 -45 -560 -9 -351 -12 -423 -26 -575 -6 -74 -31 -228
-44 -275 -71 -271 -149 -372 -300 -387 -77 -8 -120 -35 -120 -76 0 -18 4 -37
8 -42 52 -73 256 -55 386 32 148 100 270 322 324 588 27 130 50 305 58 430 3
55 7 111 10 124 2 14 8 102 14 195 6 94 15 194 20 221 5 28 11 73 15 100 15
120 68 298 99 333 l21 23 17 -40 c12 -29 23 -41 38 -41 27 0 26 26 -5 96 -30
67 -26 79 57 165 92 97 238 190 374 239 137 48 229 62 424 62 219 1 250 -4
250 -37 0 -13 -5 -27 -11 -31 -6 -3 -17 -21 -25 -38 -8 -17 -23 -44 -34 -61
-21 -31 -22 -33 -52 -105 -11 -25 -23 -54 -28 -65 -29 -60 -59 -164 -92 -310
-19 -87 -22 -130 -23 -330 0 -234 5 -284 47 -465 73 -318 270 -693 492 -934
48 -53 55 -66 61 -115 12 -102 53 -241 92 -316 58 -108 72 -131 128 -201 33
-41 94 -103 135 -138 73 -62 241 -166 267 -166 8 0 24 -6 36 -14 12 -8 66 -24
120 -36 84 -19 117 -22 240 -18 137 5 146 7 255 47 l113 42 47 -17 c215 -78
348 -123 472 -159 124 -35 148 -42 223 -61 37 -9 70 -20 73 -25 3 -5 -12 -26
-33 -47 -110 -109 -181 -226 -214 -355 -16 -61 -18 -81 -9 -92 22 -27 47 0 55
57 15 106 110 265 225 376 l45 43 83 -6 c46 -3 90 -9 98 -12 21 -8 17 -34 -11
-87 -68 -129 -114 -376 -98 -526 7 -67 10 -75 31 -78 22 -3 22 -2 22 105 1 59
3 135 6 168 6 64 42 223 54 240 4 6 11 21 15 34 4 14 21 47 37 73 l30 48 58 0
c32 0 61 -4 64 -9 4 -5 -1 -37 -10 -72 -20 -79 -13 -147 28 -271 28 -87 84
-203 112 -238 7 -8 16 -23 19 -32 8 -23 57 -25 57 -2 0 8 -14 35 -30 59 -38
55 -100 184 -100 207 0 9 -4 19 -9 22 -16 10 -34 137 -29 206 9 115 10 116
185 123 339 14 526 102 624 292 61 120 99 292 99 451 0 56 5 97 13 107 30 42
225 43 303 2 16 -8 35 -15 41 -15 18 0 129 -59 186 -97 53 -37 90 -46 94 -23
6 27 -146 127 -252 166 -147 55 -199 62 -355 42 -23 -3 -25 1 -31 45 -7 64 7
82 100 125 116 54 228 75 410 76 121 1 155 4 159 15 7 21 -15 29 -107 36 -97
7 -265 -8 -356 -32 -47 -13 -145 -52 -195 -79 -31 -16 -59 136 -35 191 23 54
170 174 265 217 71 33 146 56 190 60 27 2 35 7 35 23 0 18 -6 20 -62 18 -121
-5 -266 -81 -405 -212 -27 -25 -41 -32 -49 -24 -5 5 -21 61 -35 124 -45 212
-90 376 -162 588 -36 108 -43 138 -33 152 6 10 11 24 11 31 0 7 7 26 15 42 22
41 55 214 55 283 0 118 -65 365 -115 436 -19 27 -19 61 0 77 8 7 15 19 15 26
0 31 54 176 92 249 60 114 164 245 221 276 15 9 103 -16 112 -32 4 -5 -5 -28
-19 -51 -67 -115 -83 -271 -47 -450 23 -108 38 -148 58 -148 23 0 27 31 10 79
-8 25 -21 92 -28 148 -19 161 3 279 68 369 l21 29 84 -23 c277 -77 462 -81
608 -15 88 40 191 144 247 248 12 22 32 61 46 87 14 26 40 88 57 137 41 115
53 126 125 117 79 -9 126 -27 204 -80 63 -43 157 -132 206 -197 26 -32 54 -44
61 -24 8 20 -12 50 -88 131 -130 138 -278 224 -388 224 -49 0 -60 13 -48 58
15 55 33 69 104 81 151 27 347 3 506 -60 61 -25 98 -25 98 -1 0 26 -117 71
-270 103 -105 22 -298 27 -346 9 -48 -18 -58 -7 -51 58 14 132 44 157 277 234
52 17 91 22 190 22 107 1 125 3 128 17 2 12 -9 19 -42 28 -114 28 -296 -4
-454 -81 -64 -31 -68 -26 -58 65 22 207 25 277 26 509 l0 256 43 54 c141 173
206 379 191 603 -14 225 -94 417 -245 593 -55 64 -182 168 -241 197 -26 12
-48 43 -102 138 -218 384 -502 657 -880 845 -369 183 -800 230 -1193 128 -83
-22 -87 -21 -148 24 -109 80 -240 142 -400 188 -319 91 -680 87 -967 -12 -94
-32 -268 -115 -268 -128 0 -5 -5 -8 -10 -8 -37 0 -227 -171 -327 -295 -52 -65
-163 -235 -163 -251 0 -2 -15 -34 -33 -71 -18 -38 -41 -90 -51 -118 -32 -85
-31 -85 -118 6 l-78 83 7 51 c5 27 8 115 7 195 -1 145 -24 297 -59 390 -8 19
-16 48 -20 63 -10 46 -93 229 -146 322 -135 235 -347 440 -575 557 -201 103
-405 143 -679 135 -168 -5 -225 -14 -465 -68 -133 -30 -221 -47 -323 -64 -49
-8 -96 -16 -105 -19 -10 -3 -62 -10 -117 -15 -373 -37 -568 -16 -674 75 -37
32 -91 125 -91 157 0 8 -7 20 -15 27 -8 7 -15 19 -15 26 0 10 -13 14 -43 14
-37 0 -44 -4 -54 -27z"/>
<path fill="#ffffff" stroke="none" d="M3443 10168 c53 -8 103 -20 109 -26 7
-7 29 -12 49 -12 20 0 42 -6 48 -14 7 -8 30 -17 51 -21 21 -4 44 -13 51 -21 6
-8 20 -14 30 -14 10 0 20 -4 24 -9 3 -5 30 -22 60 -37 30 -16 55 -31 55 -35 0
-4 26 -24 57 -45 58 -38 213 -188 241 -234 9 -14 33 -47 53 -75 20 -27 49 -75
65 -105 16 -30 35 -59 42 -63 6 -4 12 -18 12 -30 0 -13 5 -28 12 -35 11 -11
19 -31 48 -112 7 -19 19 -47 26 -62 8 -14 14 -39 14 -55 0 -16 5 -34 11 -40
26 -26 66 -355 55 -445 -6 -48 -11 -58 -27 -58 -10 0 -19 5 -19 10 0 6 -5 10
-11 10 -6 0 -30 16 -53 35 -24 19 -47 35 -53 35 -5 0 -22 14 -38 30 -25 26
-30 41 -37 108 -18 204 -18 201 -65 357 -21 69 -55 156 -70 180 -7 11 -13 25
-13 31 0 11 -36 77 -72 132 -10 15 -21 34 -25 42 -23 50 -184 224 -248 267
-22 15 -45 32 -50 37 -15 16 -43 32 -105 61 -30 14 -67 32 -82 40 -14 8 -37
15 -50 15 -13 0 -29 5 -35 11 -13 13 -114 36 -212 48 -151 18 -376 0 -536 -44
-82 -22 -136 -36 -200 -49 -33 -8 -80 -18 -105 -24 -48 -12 -163 -32 -325 -57
-116 -17 -281 -19 -340 -4 -22 6 -64 15 -94 20 -29 5 -63 16 -75 24 -11 8 -30
15 -42 15 -12 0 -27 7 -34 15 -7 8 -19 15 -27 15 -25 0 -113 70 -113 90 0 6
-5 10 -10 10 -6 0 -15 11 -20 25 -5 14 -14 25 -20 25 -5 0 -10 5 -10 10 0 6 7
10 15 10 8 0 15 -4 15 -10 0 -5 6 -10 13 -10 6 0 25 -14 42 -31 16 -17 42 -33
57 -36 15 -3 29 -11 32 -19 3 -8 20 -14 43 -14 21 -1 49 -7 63 -15 32 -18 459
-22 492 -4 11 6 66 14 121 18 56 4 112 13 124 19 12 7 42 12 66 12 24 0 73 9
107 20 34 11 79 20 99 20 20 1 47 7 61 15 14 8 44 14 68 15 23 0 57 6 75 14
18 7 73 17 122 21 49 4 98 11 110 16 28 12 258 4 378 -13z"/>
<path fill="#ffffff" stroke="none" d="M6370 9320 c25 -5 74 -15 110 -21 36
-6 79 -18 97 -25 17 -8 42 -14 55 -14 13 0 33 -7 44 -15 10 -8 27 -15 37 -15
9 0 34 -9 54 -20 21 -11 45 -20 53 -20 9 0 21 -5 27 -11 14 -14 50 -35 84 -49
27 -11 54 -54 44 -70 -3 -5 -21 -12 -40 -16 -19 -3 -39 -12 -46 -20 -6 -8 -19
-14 -29 -14 -10 0 -23 -7 -30 -15 -18 -22 -97 -31 -118 -13 -47 41 -255 111
-417 141 -98 17 -399 22 -441 7 -16 -6 -47 -14 -69 -16 -167 -22 -410 -153
-545 -294 -52 -54 -110 -120 -110 -125 0 -2 -13 -23 -29 -47 -32 -47 -88 -144
-97 -168 -18 -47 -48 -117 -55 -133 -6 -10 -14 -41 -19 -69 -6 -28 -12 -53
-14 -56 -5 -4 -58 28 -68 43 -14 19 -8 85 12 122 11 21 20 43 20 50 0 6 6 24
14 40 117 237 106 215 158 294 90 134 206 250 345 345 53 36 88 55 193 101 19
9 47 22 62 30 14 7 36 13 48 13 12 0 31 5 43 12 19 10 80 24 202 48 57 11 371
11 425 0z"/>
<path fill="#ffffff" stroke="none" d="M7908 9076 c17 -9 48 -16 69 -16 21 -1
49 -7 63 -15 14 -8 34 -15 45 -15 11 0 38 -9 60 -20 22 -11 50 -19 61 -20 12
0 27 -7 34 -15 7 -8 18 -15 26 -15 15 0 163 -75 178 -90 6 -6 18 -10 28 -10 9
0 21 -6 25 -13 4 -7 26 -24 48 -37 170 -101 412 -342 543 -538 78 -117 96
-161 70 -163 -36 -3 -101 4 -170 16 -66 12 -84 12 -133 0 -31 -8 -70 -15 -86
-15 -17 0 -49 -8 -72 -18 -23 -10 -62 -27 -87 -38 -25 -10 -51 -24 -58 -31 -7
-7 -20 -13 -27 -13 -8 0 -18 -6 -22 -13 -4 -7 -32 -32 -61 -56 -61 -50 -145
-157 -171 -218 -6 -11 -15 -24 -20 -28 -6 -3 -11 -14 -11 -23 0 -10 -9 -34
-20 -55 -11 -20 -20 -48 -20 -62 0 -14 -7 -42 -15 -62 -21 -49 -21 -336 0
-373 8 -14 14 -41 15 -61 0 -19 7 -44 15 -55 8 -10 15 -25 15 -33 0 -13 32
-89 51 -121 5 -8 13 -24 18 -35 16 -36 50 -60 69 -49 22 14 27 51 9 72 -19 24
-57 100 -57 116 0 8 -7 27 -15 43 -8 15 -24 61 -36 102 -19 65 -21 91 -17 235
4 124 9 168 21 191 9 17 17 38 17 47 0 39 91 194 154 262 51 54 143 126 162
126 6 0 14 7 18 15 3 8 16 15 29 15 14 0 30 7 37 15 7 8 25 15 41 15 16 0 49
7 75 16 85 29 274 13 382 -32 18 -8 39 -14 46 -14 8 0 19 -6 25 -14 7 -8 24
-17 39 -21 15 -4 29 -10 32 -13 3 -4 25 -21 50 -37 106 -71 172 -142 268 -291
6 -10 17 -30 22 -44 6 -14 17 -37 25 -52 8 -14 15 -34 15 -45 0 -10 7 -27 15
-37 8 -11 15 -40 15 -65 1 -25 7 -57 15 -71 17 -30 21 -201 5 -230 -6 -10 -14
-45 -19 -77 -5 -32 -14 -74 -21 -93 -7 -19 -15 -39 -16 -45 -2 -5 -15 -28 -29
-50 -13 -22 -29 -50 -35 -62 -15 -35 -72 -98 -169 -186 -22 -20 -41 -43 -41
-50 0 -19 21 -37 42 -37 30 0 38 -41 32 -167 -14 -322 -51 -636 -80 -680 -9
-14 -60 -71 -114 -127 -111 -113 -180 -201 -180 -227 0 -19 33 -34 51 -24 5 4
14 17 20 28 16 39 33 60 101 129 64 65 90 80 103 58 10 -16 -83 -129 -107
-130 -19 -1 -128 -127 -128 -148 0 -5 -6 -12 -14 -15 -8 -3 -17 -20 -21 -38
-6 -27 -3 -36 14 -50 11 -9 21 -29 21 -43 0 -15 8 -30 20 -36 25 -13 18 -29
-49 -112 -56 -69 -81 -75 -81 -20 0 21 5 43 12 50 16 16 17 144 1 149 -7 3
-13 13 -13 23 0 31 -44 70 -78 70 -27 0 -95 -29 -207 -88 -69 -36 -82 -91 -37
-156 32 -47 108 -104 139 -105 12 -1 39 -15 59 -33 34 -30 35 -32 15 -39 -11
-5 -64 -11 -118 -14 -54 -4 -108 -8 -120 -10 -13 -2 -23 1 -23 6 0 5 4 9 9 9
5 0 13 14 16 32 6 23 3 35 -9 43 -9 7 -16 21 -16 32 0 34 -23 51 -78 56 -63 5
-82 19 -65 46 10 15 9 22 -3 32 -19 16 -340 -6 -390 -27 -18 -8 -56 -14 -83
-14 -48 0 -109 26 -233 99 -113 67 -180 109 -221 137 -26 19 -50 34 -53 34 -3
0 -16 8 -29 18 -12 9 -33 24 -45 32 -12 8 -45 32 -73 53 -28 20 -55 37 -60 37
-6 0 -7 19 -4 45 4 24 4 51 1 60 -8 19 -41 19 -74 0 -14 -8 -39 -14 -56 -15
-16 0 -35 -5 -42 -12 -20 -20 -181 -23 -245 -4 -30 9 -63 16 -74 16 -22 0
-131 44 -146 59 -6 6 -19 11 -28 11 -9 0 -22 7 -29 15 -7 8 -17 15 -22 15 -31
0 -244 207 -254 247 -3 12 -12 24 -20 27 -8 3 -14 12 -14 19 0 8 -9 24 -20 37
-11 13 -20 33 -20 45 0 13 -7 28 -15 35 -8 7 -15 21 -15 30 0 10 -6 31 -14 47
-32 63 -58 331 -37 372 6 11 14 47 18 80 3 34 12 66 19 72 8 6 14 24 14 40 0
15 5 31 10 34 6 4 17 21 25 38 25 54 88 141 131 182 57 52 86 77 107 86 12 5
47 23 77 39 30 16 62 30 71 30 9 0 30 7 45 15 41 21 312 22 340 0 10 -8 33
-15 49 -15 17 0 44 -9 60 -20 17 -11 37 -20 46 -20 9 0 22 -7 29 -15 7 -8 21
-15 31 -15 10 0 22 -6 26 -13 4 -6 28 -26 52 -42 70 -47 144 -123 200 -205 28
-41 51 -78 51 -83 0 -5 9 -20 20 -34 11 -14 20 -33 20 -42 1 -43 70 -81 83
-47 9 22 -4 84 -19 97 -8 6 -14 18 -14 25 0 8 -16 37 -35 64 -19 27 -35 52
-35 55 0 11 -46 69 -103 131 -93 99 -332 244 -402 244 -15 0 -42 7 -60 16 -26
12 -61 14 -176 11 -140 -4 -204 -14 -262 -43 -16 -8 -33 -14 -39 -14 -50 0
-296 -206 -314 -263 -4 -12 -9 -24 -13 -27 -3 -3 -19 -24 -35 -48 -33 -49 -57
-51 -66 -7 -4 17 -11 39 -17 50 -16 31 -44 117 -50 150 -2 17 -11 44 -19 62
-8 17 -14 47 -14 67 0 19 -8 55 -17 78 -16 38 -18 79 -17 348 0 266 3 309 17
335 9 17 17 51 17 76 0 25 7 54 15 65 8 10 15 30 15 44 0 14 9 43 20 65 11 22
19 50 20 61 0 12 7 27 15 34 8 7 15 19 15 27 0 8 6 27 14 41 8 15 19 38 25 52
17 37 37 70 50 83 6 6 11 19 11 29 0 9 6 21 13 25 8 4 26 29 41 56 16 26 32
47 37 47 5 0 9 7 9 15 0 7 6 18 13 22 7 4 32 33 57 63 48 58 81 92 143 143 22
18 51 42 65 55 68 58 206 139 312 184 19 8 56 25 81 37 25 11 57 21 70 21 13
0 33 7 43 15 11 8 34 15 52 15 18 0 45 5 61 12 47 19 147 26 379 23 180 -2
226 -6 252 -19z"/>
<path fill="#ffffff" stroke="none" d="M6280 8970 c52 -12 110 -28 128 -36 18
-8 37 -14 43 -14 10 0 89 -33 119 -49 28 -15 21 -40 -21 -78 -383 -341 -589
-815 -589 -1352 0 -278 56 -538 177 -830 l39 -94 -12 -71 c-60 -331 74 -690
338 -907 29 -24 58 -49 64 -55 23 -21 200 -103 269 -125 61 -19 91 -22 234
-21 l164 1 76 -57 c146 -107 176 -129 256 -184 44 -30 102 -67 128 -84 27 -16
61 -37 75 -46 15 -9 51 -29 80 -45 31 -16 52 -34 52 -44 0 -10 -23 -30 -57
-49 -125 -71 -246 -183 -300 -280 -15 -28 -31 -50 -35 -50 -4 0 -36 15 -70 34
-61 33 -234 96 -264 96 -8 0 -68 51 -134 113 -293 278 -633 461 -1015 546
-294 65 -587 59 -875 -17 -91 -24 -267 -95 -333 -134 -26 -15 -50 -28 -53 -28
-2 0 -27 -16 -54 -35 -50 -35 -78 -43 -96 -26 -15 16 -118 48 -193 61 -40 8
-72 19 -75 27 -3 7 7 24 22 37 80 71 106 98 161 166 130 161 206 356 218 558
6 107 8 115 40 160 18 26 33 50 33 54 0 4 13 26 29 50 60 89 165 327 210 478
66 220 86 360 86 605 0 231 -12 325 -66 515 -28 100 -39 130 -82 229 -20 47
-18 58 29 166 7 17 27 64 45 105 156 365 294 544 496 641 156 76 278 100 478
95 96 -3 170 -11 235 -26z"/>
<path fill="#ffffff" stroke="none" d="M3717 8862 c66 -4 127 -13 135 -19 7
-5 37 -13 66 -16 29 -3 62 -13 74 -22 13 -8 33 -15 46 -15 13 0 36 -6 50 -13
35 -18 90 -44 122 -57 14 -6 39 -19 55 -30 17 -11 39 -24 50 -29 37 -16 129
-82 190 -134 129 -112 214 -206 293 -328 51 -78 63 -99 106 -189 15 -30 33
-67 41 -82 8 -14 15 -34 15 -45 0 -10 7 -27 15 -37 8 -11 15 -34 15 -51 0 -17
6 -40 14 -51 8 -12 18 -45 21 -75 4 -30 14 -70 23 -89 23 -51 23 -602 -1 -670
-8 -25 -17 -69 -20 -98 -4 -29 -13 -62 -22 -74 -8 -13 -15 -38 -15 -58 0 -20
-6 -44 -14 -55 -7 -11 -16 -31 -19 -45 -10 -45 -44 -131 -56 -143 -6 -6 -11
-21 -11 -33 0 -12 -7 -27 -15 -34 -8 -7 -15 -20 -15 -30 0 -10 -6 -23 -14 -29
-8 -7 -18 -25 -21 -41 -3 -16 -13 -31 -21 -34 -8 -3 -14 -14 -14 -24 0 -11 -7
-25 -16 -32 -22 -19 -54 16 -61 68 -3 23 -12 47 -19 53 -8 6 -14 16 -14 21 0
18 -52 118 -61 118 -5 0 -9 5 -9 11 0 20 -88 116 -153 166 -55 43 -142 93
-161 93 -4 0 -14 7 -22 15 -9 8 -26 15 -38 15 -13 0 -40 7 -59 15 -53 22 -313
21 -382 -1 -137 -44 -243 -91 -309 -136 -59 -41 -167 -138 -201 -182 -22 -29
-52 -65 -68 -81 -15 -17 -30 -39 -33 -50 -4 -11 -13 -27 -21 -37 -20 -23 -13
-82 10 -86 22 -4 43 16 77 74 25 41 93 126 140 173 39 40 134 121 142 121 3 0
30 16 59 35 30 19 60 35 67 35 8 0 26 6 40 14 41 20 92 37 142 46 60 12 256
12 300 1 151 -39 271 -112 368 -227 28 -34 52 -65 52 -68 0 -4 7 -14 15 -22 8
-9 15 -24 15 -33 0 -10 6 -24 14 -30 8 -7 18 -27 22 -44 3 -18 10 -37 15 -43
5 -6 14 -47 20 -90 6 -43 14 -106 18 -139 6 -44 5 -69 -5 -94 -8 -18 -14 -57
-14 -85 -1 -29 -9 -68 -20 -91 -11 -22 -19 -48 -20 -58 0 -17 -7 -33 -41 -97
-4 -8 -20 -39 -36 -69 -15 -29 -33 -56 -40 -58 -7 -3 -13 -11 -13 -19 0 -7 -6
-17 -12 -21 -7 -4 -24 -24 -38 -44 -25 -35 -148 -149 -162 -149 -4 0 -27 -13
-51 -30 -44 -29 -48 -30 -203 -36 -100 -4 -171 -11 -193 -20 -18 -8 -51 -14
-73 -14 -21 0 -53 -7 -71 -16 -39 -21 -96 -21 -128 -2 -35 22 -102 30 -123 15
-14 -10 -15 -18 -7 -40 16 -42 15 -43 -36 -68 -27 -12 -89 -46 -139 -75 -50
-29 -102 -58 -115 -64 -13 -5 -31 -14 -39 -19 -14 -8 -91 -45 -200 -94 -25
-11 -57 -26 -72 -34 -14 -7 -33 -13 -42 -13 -9 0 -27 -6 -39 -14 -12 -8 -35
-17 -52 -20 -39 -7 -145 10 -181 29 -16 8 -47 15 -69 15 -22 1 -51 7 -65 15
-16 9 -56 14 -112 15 -77 0 -88 -2 -88 -17 0 -35 14 -42 76 -40 34 1 72 -3 85
-10 13 -6 51 -15 84 -20 56 -7 60 -10 63 -36 3 -23 0 -27 -23 -27 -38 0 -117
21 -135 35 -8 7 -42 15 -74 18 -32 3 -64 11 -69 16 -6 6 -39 11 -73 11 l-62 0
-12 -35 c-7 -20 -23 -43 -36 -52 -13 -8 -24 -24 -24 -34 0 -11 -6 -22 -12 -24
-22 -7 -201 19 -205 30 -3 11 93 59 140 69 15 4 27 11 27 16 0 6 6 10 13 10
22 0 85 78 87 107 4 59 -1 69 -52 108 -29 22 -61 43 -70 47 -10 4 -18 12 -18
18 0 5 -8 10 -17 10 -9 0 -24 6 -32 14 -9 8 -31 17 -49 19 -28 5 -40 0 -72
-29 -24 -22 -40 -46 -43 -67 -3 -17 -11 -53 -18 -80 -11 -41 -10 -52 4 -83 21
-42 22 -68 3 -83 -16 -14 -45 13 -94 84 -15 22 -29 42 -32 45 -13 12 -40 60
-40 71 0 6 -10 19 -22 28 -17 14 -18 18 -5 18 9 0 18 -6 21 -14 7 -17 76 -18
77 0 1 6 1 19 0 28 -1 10 10 21 29 27 33 12 40 41 15 62 -8 7 -15 20 -15 30 0
10 -7 23 -15 30 -8 7 -15 20 -15 30 0 10 -43 62 -96 117 -52 54 -99 108 -105
121 -13 33 -11 69 4 75 17 6 77 -48 77 -69 0 -8 7 -17 15 -20 8 -4 15 -12 15
-20 0 -7 6 -17 13 -21 15 -10 34 -39 48 -75 6 -14 17 -29 26 -32 11 -4 13 -14
9 -32 -6 -24 -5 -25 31 -22 40 3 44 14 22 62 -14 30 -66 114 -79 126 -14 13
-50 70 -50 79 0 6 -6 14 -13 18 -25 16 -116 128 -127 157 -34 91 13 839 54
851 6 2 23 6 39 9 43 10 33 36 -44 117 -39 40 -75 83 -80 94 -5 11 -18 34 -29
50 -23 36 -40 72 -40 88 0 7 -7 21 -15 31 -8 11 -15 36 -15 55 -1 20 -7 47
-15 61 -21 36 -21 267 0 317 8 19 15 50 15 67 0 18 7 41 15 52 8 10 15 28 15
39 0 11 7 31 14 45 8 14 24 45 37 70 43 83 81 133 180 230 89 88 125 120 137
120 6 0 34 16 63 35 30 19 63 35 74 35 12 0 26 5 33 12 13 13 74 32 157 50 72
15 272 5 310 -15 17 -10 39 -17 50 -17 11 0 29 -7 39 -15 11 -8 26 -15 33 -15
38 0 240 -179 264 -235 5 -11 13 -27 18 -35 11 -18 43 -90 61 -140 22 -60 41
-269 30 -323 -6 -26 -10 -69 -10 -96 0 -26 -7 -56 -15 -67 -8 -10 -15 -30 -15
-42 0 -13 -7 -36 -15 -50 -8 -15 -26 -52 -40 -82 -27 -56 -39 -76 -88 -148
-34 -48 -34 -95 -1 -100 16 -2 32 10 58 41 20 24 36 49 36 56 0 6 7 14 15 17
8 4 15 13 15 21 0 8 9 26 20 40 11 14 20 31 20 38 0 7 7 18 15 25 8 7 15 22
15 34 0 12 7 31 15 42 8 10 15 30 15 44 0 14 8 39 17 55 26 47 26 406 -1 490
-18 58 -40 114 -57 145 -4 8 -18 35 -30 58 -12 24 -31 54 -43 67 -11 13 -30
34 -42 46 -34 39 -118 115 -134 122 -8 4 -28 16 -45 27 -16 11 -37 22 -45 26
-8 3 -33 14 -56 25 -23 10 -51 19 -63 19 -12 0 -32 6 -44 13 -12 6 -73 14
-137 17 -97 4 -115 8 -118 22 -2 9 5 25 15 36 10 11 34 39 53 63 58 73 221
231 298 289 40 30 72 58 72 62 0 5 4 8 9 8 5 0 46 25 92 55 46 30 89 55 96 55
7 0 13 4 13 9 0 5 12 14 28 20 15 6 34 15 42 19 8 5 31 16 50 25 19 8 56 25
81 36 25 12 54 21 65 21 10 0 28 7 38 15 11 8 31 15 46 15 14 0 34 6 45 14 11
7 40 16 65 20 25 4 68 13 95 21 47 14 296 33 360 28 17 -1 85 -6 152 -11z"/>
<path fill="#ffffff" stroke="none" d="M5900 5239 c25 -6 74 -17 110 -24 103
-22 153 -36 183 -51 16 -8 37 -14 48 -14 10 0 36 -9 56 -20 21 -11 45 -20 54
-20 9 0 22 -7 29 -15 7 -8 23 -15 36 -15 12 0 25 -4 29 -9 3 -5 33 -23 68 -41
70 -35 81 -41 149 -87 26 -18 50 -33 53 -33 6 0 66 -41 75 -51 3 -3 29 -24 59
-48 143 -112 172 -151 112 -151 -16 0 -42 -5 -58 -11 -15 -6 -53 -15 -83 -19
-124 -17 -288 -104 -375 -196 -67 -72 -122 -148 -140 -194 -3 -8 -15 -32 -25
-52 -11 -20 -20 -50 -20 -65 -1 -15 -7 -39 -15 -53 -19 -33 -21 -370 -3 -403
6 -12 15 -38 19 -57 11 -51 42 -133 57 -148 6 -7 12 -22 12 -32 0 -10 7 -20
15 -24 8 -3 15 -13 15 -22 0 -19 125 -182 183 -237 31 -30 45 -37 70 -35 50 5
47 33 -10 92 -28 28 -67 74 -89 101 -21 28 -43 53 -47 56 -9 6 -29 43 -66 116
-13 26 -30 60 -37 75 -8 14 -14 34 -14 45 0 10 -8 32 -17 48 -13 24 -18 65
-21 195 -4 151 -2 171 18 235 13 39 29 82 36 97 8 14 14 33 14 42 0 9 6 19 14
22 8 3 17 16 20 30 8 29 144 169 174 179 12 3 22 10 22 15 0 4 12 13 28 19 15
6 34 15 42 19 46 27 91 43 135 48 28 4 58 11 69 16 26 14 174 17 211 6 17 -6
56 -14 88 -19 32 -5 68 -16 80 -24 12 -8 33 -15 48 -15 15 0 32 -7 39 -15 7
-8 18 -15 25 -15 7 0 37 -16 66 -35 30 -19 58 -35 64 -35 6 0 18 -8 26 -17 9
-10 43 -43 75 -74 108 -102 162 -172 195 -251 6 -16 15 -28 20 -28 5 0 9 -8 9
-17 1 -10 9 -36 20 -58 11 -22 19 -47 20 -56 0 -9 7 -30 15 -47 21 -40 17
-367 -4 -422 -22 -56 -52 -124 -61 -140 -83 -138 -86 -157 -22 -162 49 -4 51
-9 114 -238 34 -127 61 -244 88 -380 35 -182 37 -218 16 -258 -8 -15 -17 -34
-20 -42 -3 -8 -19 -37 -35 -65 -16 -27 -30 -57 -30 -66 -1 -9 -8 -22 -16 -29
-8 -7 -15 -23 -15 -35 0 -12 -7 -28 -15 -35 -8 -7 -15 -24 -15 -37 0 -14 -7
-37 -16 -53 -10 -15 -14 -35 -11 -44 8 -21 36 -21 52 1 14 19 35 10 35 -16 0
-10 -7 -32 -16 -49 -9 -18 -14 -49 -12 -74 3 -36 7 -44 26 -46 15 -2 27 -14
33 -32 6 -15 19 -30 30 -33 25 -7 24 -39 -1 -96 -11 -24 -20 -51 -20 -61 0
-10 -6 -23 -14 -29 -19 -16 -33 4 -42 57 -4 23 -11 45 -15 48 -5 3 -9 20 -9
37 -1 58 -81 157 -128 157 -23 0 -98 -54 -152 -108 -94 -95 -103 -138 -40
-202 21 -22 45 -40 52 -40 7 0 26 -7 43 -16 16 -8 59 -18 95 -21 65 -6 95 -18
84 -34 -5 -9 -79 -45 -154 -75 -19 -8 -46 -20 -60 -27 -45 -23 -83 0 -40 23
31 16 26 53 -9 67 -19 7 -30 19 -33 34 -4 31 -39 36 -88 14 -54 -24 -75 -17
-75 25 0 34 -1 35 -36 33 -20 -1 -56 -9 -80 -18 -24 -10 -56 -19 -71 -22 -15
-3 -33 -11 -39 -19 -6 -8 -22 -14 -35 -14 -12 0 -25 -4 -28 -9 -3 -4 -32 -21
-63 -37 -32 -15 -66 -35 -77 -44 -22 -19 -139 -19 -206 0 -25 7 -70 18 -100
26 -117 27 -176 43 -210 54 -80 27 -97 32 -130 40 -45 11 -127 38 -165 55 -16
8 -38 16 -47 19 -14 4 -18 16 -18 51 0 45 0 45 -35 45 -22 0 -38 -6 -41 -15
-4 -8 -12 -15 -19 -15 -6 0 -20 -9 -30 -20 -10 -11 -26 -20 -35 -20 -10 0 -23
-7 -30 -15 -7 -8 -22 -15 -34 -15 -11 0 -29 -7 -40 -15 -10 -8 -39 -17 -65
-20 -25 -4 -59 -11 -75 -17 -32 -13 -214 -12 -230 1 -6 5 -38 12 -71 16 -33 4
-68 13 -79 21 -11 8 -30 14 -42 14 -12 0 -27 7 -34 15 -7 8 -19 15 -28 15 -47
0 -263 177 -347 285 -39 49 -105 163 -105 180 0 7 -7 18 -15 25 -8 7 -15 23
-15 37 0 13 -7 38 -16 54 -8 17 -17 53 -20 82 -3 29 -10 71 -16 94 -12 49 14
265 37 310 8 16 15 33 15 40 0 19 40 94 74 138 34 44 95 106 142 145 47 38
171 100 199 100 15 0 39 7 56 15 24 13 59 15 182 12 147 -3 211 -14 270 -43
16 -8 36 -14 45 -15 9 0 40 -14 67 -30 28 -16 57 -32 65 -36 24 -11 71 -46
105 -78 71 -66 111 -106 138 -135 29 -30 42 -35 71 -24 27 11 18 44 -28 98
-46 53 -187 178 -209 185 -6 2 -19 9 -27 16 -27 24 -149 85 -167 85 -10 0 -27
6 -38 14 -11 7 -40 17 -65 21 -25 4 -64 13 -88 21 -58 19 -257 19 -294 0 -15
-8 -52 -18 -82 -21 -31 -4 -61 -13 -67 -21 -6 -8 -22 -14 -35 -14 -12 0 -26
-5 -29 -10 -4 -6 -20 -16 -36 -23 -43 -18 -148 -104 -194 -159 -22 -26 -46
-55 -53 -63 -24 -27 -92 -167 -92 -189 -1 -11 -7 -32 -15 -46 -8 -14 -14 -44
-15 -66 0 -58 -20 -71 -52 -36 -36 40 -128 159 -128 166 0 3 -15 28 -32 54
-52 76 -58 85 -69 115 -6 15 -15 27 -19 27 -5 0 -11 13 -15 29 -3 16 -13 35
-21 42 -8 6 -14 17 -14 24 0 8 -6 26 -14 42 -37 74 -56 122 -56 140 0 11 -7
26 -15 33 -8 7 -15 28 -15 47 0 18 -6 44 -14 56 -8 12 -17 47 -21 77 -4 30
-12 64 -18 75 -14 28 -30 218 -30 365 0 144 17 336 31 353 5 7 13 34 17 62 4
27 13 58 21 69 8 11 14 35 14 52 0 17 7 37 15 44 8 7 15 21 15 32 0 10 10 38
22 61 12 23 25 49 29 57 38 73 63 118 75 131 8 8 14 19 14 23 0 14 131 176
185 230 94 94 256 219 320 247 20 9 31 15 70 37 11 7 31 17 45 22 14 6 37 17
52 25 14 8 34 15 45 15 10 0 27 7 37 15 11 8 34 15 51 15 17 0 36 5 42 11 7 7
42 18 80 25 37 7 84 17 103 23 46 12 502 12 560 0z"/>
<path fill="#ffffff" stroke="none" d="M9299 5207 c-6 -12 -21 -30 -35 -40
-23 -17 -24 -17 -24 0 0 22 48 76 60 68 5 -3 5 -15 -1 -28z"/>
<path fill="#ffffff" stroke="none" d="M1471 5098 c21 -23 39 -51 39 -61 0
-11 7 -25 17 -32 9 -7 13 -17 8 -24 -5 -9 -12 -7 -26 8 -11 12 -24 21 -29 21
-6 0 -10 6 -10 13 0 6 -15 28 -33 47 -18 19 -36 43 -40 53 -13 34 34 18 74
-25z"/>
<path fill="#ffffff" stroke="none" d="M4444 5029 c32 -11 69 -19 82 -19 42 0
27 -34 -47 -108 -73 -72 -114 -98 -146 -89 -90 26 -491 28 -561 2 -17 -6 -20
-7 -82 -21 -127 -28 -307 -106 -415 -179 -67 -46 -241 -215 -250 -245 -4 -11
-10 -20 -14 -20 -3 0 -20 -26 -36 -57 -17 -32 -36 -63 -42 -71 -7 -7 -13 -22
-13 -32 0 -10 -4 -21 -9 -24 -16 -10 -77 -225 -86 -306 -4 -30 -9 -68 -11 -85
-3 -16 -7 -88 -9 -158 -4 -94 -2 -126 7 -121 6 4 8 3 5 -3 -4 -6 -7 -113 -8
-239 -1 -126 -5 -260 -10 -299 -22 -180 -29 -224 -43 -284 -8 -35 -19 -68 -25
-74 -6 -6 -11 -19 -11 -28 0 -23 -79 -179 -91 -179 -5 0 -9 -7 -9 -16 0 -9
-26 -42 -58 -74 -72 -71 -172 -124 -172 -90 0 6 4 10 9 10 12 0 101 88 101
100 0 6 7 13 15 16 8 4 15 12 15 19 0 7 9 24 20 38 11 14 20 34 20 45 0 11 7
25 15 32 8 7 15 24 15 39 0 14 6 38 14 53 8 15 17 48 21 75 3 26 12 69 20 95
7 26 15 84 16 129 1 46 8 103 16 127 10 34 13 135 14 411 0 201 5 393 10 426
5 33 14 96 20 139 5 44 17 88 25 100 7 11 14 34 14 51 0 17 7 40 15 51 8 10
15 29 15 42 0 13 9 40 20 60 10 20 21 44 24 52 3 8 10 22 15 30 5 8 12 22 15
30 3 8 12 24 18 35 29 43 82 121 93 135 25 31 163 166 192 187 16 12 42 34 57
48 15 14 31 25 37 25 5 0 31 15 57 33 45 31 72 45 172 90 25 11 57 26 72 34
14 7 39 13 55 13 16 0 37 6 48 14 11 7 44 16 74 20 30 4 64 12 75 18 60 32
517 29 620 -3z"/>
<path fill="#ffffff" stroke="none" d="M8435 4890 c0 -10 -16 -18 -50 -24 -27
-4 -64 -15 -81 -24 -25 -12 -42 -13 -75 -6 -50 11 -57 22 -28 52 19 21 28 22
127 20 87 -2 107 -6 107 -18z"/>
<path fill="#ffffff" stroke="none" d="M8065 4804 c39 -19 73 -39 78 -43 4 -4
-18 -34 -48 -67 -108 -116 -199 -281 -238 -432 -18 -74 -35 -71 -107 16 -35
42 -90 99 -122 125 -32 27 -58 56 -58 66 0 60 117 201 230 276 66 44 165 95
185 95 6 0 42 -16 80 -36z"/>
<path fill="#ffffff" stroke="none" d="M8585 4830 c19 -7 18 -9 -8 -19 -16 -6
-46 -11 -67 -11 -24 0 -40 -5 -44 -15 -6 -17 -71 -21 -81 -6 -7 12 7 21 65 43
49 18 103 21 135 8z"/>
<path fill="#ffffff" stroke="none" d="M8680 4720 c0 -5 -5 -10 -11 -10 -5 0
-7 5 -4 10 3 6 8 10 11 10 2 0 4 -4 4 -10z"/>
<path fill="#ffffff" stroke="none" d="M2916 4586 c-9 -37 -49 -61 -75 -46
-23 12 -25 18 -13 37 8 13 84 43 91 37 2 -2 1 -14 -3 -28z"/>
<path fill="#ffffff" stroke="none" d="M2278 4552 c3 -10 -7 -12 -39 -10 -24
2 -44 9 -47 16 -3 10 7 12 39 10 24 -2 44 -9 47 -16z"/>
<path fill="#ffffff" stroke="none" d="M2795 4509 c19 -12 35 -28 35 -36 0 -8
-20 -56 -44 -106 -24 -51 -46 -100 -50 -109 -9 -29 -30 -11 -69 57 -21 36 -51
80 -68 100 -17 19 -29 42 -27 52 4 21 133 74 165 68 12 -3 38 -15 58 -26z"/>
<path fill="#ffffff" stroke="none" d="M8056 2087 c-38 -88 -57 -123 -79 -140
-9 -7 -17 -23 -19 -37 -2 -14 -10 -25 -18 -25 -21 0 -25 49 -6 68 9 9 16 27
16 40 0 14 6 30 14 36 8 7 17 24 21 39 8 35 55 74 72 60 9 -7 9 -17 -1 -41z"/>
<path fill="#ffffff" stroke="none" d="M8050 1887 c0 -7 -4 -17 -9 -22 -5 -6
-11 -23 -13 -40 -4 -41 -32 -40 -36 2 -2 24 1 33 17 38 12 3 21 13 21 21 0 8
5 14 10 14 6 0 10 -6 10 -13z"/>
<path fill="#ffffff" stroke="none" d="M7358 1313 c-2 -11 -14 -19 -31 -21
-16 -2 -37 -12 -48 -23 -10 -10 -26 -19 -34 -19 -8 0 -15 -4 -15 -9 0 -17 -92
-63 -125 -63 -75 0 -73 31 3 67 31 15 69 34 84 41 14 8 37 14 51 14 13 0 30 7
37 15 7 8 28 15 47 15 27 0 34 -4 31 -17z"/>
<path fill="#ffffff" stroke="none" d="M7438 1243 c-2 -10 -11 -19 -22 -21
-10 -2 -26 -12 -37 -23 -10 -10 -28 -19 -39 -19 -11 0 -20 -4 -20 -10 0 -5
-11 -10 -25 -10 -14 0 -25 3 -25 8 1 17 51 62 69 62 11 0 26 7 33 15 7 8 26
14 41 15 22 0 28 -4 25 -17z"/>
<path fill="#000000" stroke="none" d="M8830 7944 c-65 -14 -167 -59 -209 -92
-80 -62 -181 -182 -181 -215 0 -7 -5 -18 -12 -25 -6 -6 -22 -44 -35 -84 -26
-79 -42 -263 -29 -333 l8 -38 25 43 c14 23 33 50 42 59 9 9 25 27 36 41 37 46
160 144 198 156 9 4 17 10 17 13 0 15 171 83 250 101 88 19 272 22 321 5 23
-8 53 -15 66 -15 25 0 37 -5 143 -54 66 -31 82 -41 137 -83 23 -18 44 -33 48
-33 14 0 -15 85 -47 140 -4 8 -13 27 -19 43 -6 15 -14 27 -18 27 -4 0 -12 10
-18 23 -33 71 -202 213 -318 266 -84 39 -88 40 -150 52 -91 18 -183 19 -255 3z"/>
<path fill="#000000" stroke="none" d="M6780 6910 c-36 -10 -92 -32 -125 -50
-57 -31 -146 -96 -153 -113 -2 -4 -9 -13 -16 -20 -27 -29 -55 -78 -101 -182
-28 -65 -48 -181 -47 -287 0 -58 5 -115 10 -125 5 -10 12 -38 16 -63 3 -25 13
-60 21 -77 8 -18 23 -50 32 -70 24 -53 75 -133 85 -133 4 0 8 46 8 102 0 102
11 157 52 263 26 68 61 135 70 135 5 0 8 5 8 11 0 33 154 192 240 248 65 42
178 98 217 107 15 3 47 12 71 20 23 8 95 16 160 18 64 3 119 5 121 5 9 2 -55
57 -104 92 -171 119 -394 166 -565 119z"/>
<path fill="#000000" stroke="none" d="M8875 6072 c-37 -5 -67 -35 -88 -90
-15 -38 -15 -46 -2 -85 8 -23 15 -49 15 -58 0 -9 9 -26 20 -39 11 -13 20 -28
20 -34 0 -20 113 -86 146 -86 46 0 94 41 114 97 9 27 15 55 14 63 -21 94 -58
162 -113 206 -28 22 -77 32 -126 26z"/>
<path fill="#ffffff" stroke="none" d="M8937 5933 c4 -10 13 -24 20 -31 12
-13 8 -42 -7 -42 -5 0 -20 4 -34 10 -21 8 -26 16 -26 45 0 29 4 35 20 35 11 0
24 -8 27 -17z"/>
<path fill="#000000" stroke="none" d="M7998 5628 c-19 -18 -40 -52 -48 -76
-12 -38 -12 -49 3 -90 10 -26 17 -53 17 -59 0 -22 97 -123 118 -123 7 0 23 -7
35 -15 52 -33 156 60 157 140 0 34 -27 112 -47 136 -7 8 -13 20 -13 26 0 15
-42 51 -86 73 -57 30 -96 26 -136 -12z"/>
<path fill="#ffffff" stroke="none" d="M8124 5534 c20 -20 20 -48 1 -64 -19
-16 -40 0 -50 37 -9 39 21 56 49 27z"/>
<path fill="#000000" stroke="none" d="M2048 7844 c-2 -1 -30 -5 -62 -8 -85
-8 -215 -60 -326 -131 -55 -36 -147 -123 -194 -184 -43 -57 -110 -181 -101
-189 2 -2 21 9 42 24 111 84 306 138 468 131 101 -5 232 -30 250 -48 5 -5 15
-9 23 -9 14 0 93 -37 152 -72 120 -70 263 -225 314 -340 28 -63 41 -51 52 47
32 285 -24 477 -185 634 -31 30 -69 60 -86 68 -16 7 -37 17 -45 22 -33 19 -93
42 -123 46 -39 6 -175 13 -179 9z"/>
<path fill="#000000" stroke="none" d="M3903 6569 c-39 -5 -99 -18 -132 -29
-55 -18 -189 -84 -201 -99 -3 -3 -14 -11 -24 -17 -38 -21 -30 -34 21 -34 82
-1 266 -56 340 -103 21 -13 48 -27 60 -31 11 -4 24 -13 27 -21 3 -8 10 -15 16
-15 5 0 18 -8 29 -17 10 -10 28 -25 40 -34 18 -13 108 -115 129 -145 59 -86
101 -177 136 -296 19 -64 23 -279 7 -335 -6 -19 -6 -33 -1 -33 31 0 190 255
190 304 0 9 6 29 13 44 18 36 41 237 33 293 -23 165 -38 217 -93 309 -65 111
-149 179 -286 234 -64 26 -197 37 -304 25z"/>
<path fill="#000000" stroke="none" d="M1830 5910 c-46 -36 -89 -84 -104 -115
-46 -98 -49 -120 -25 -174 30 -68 43 -76 119 -75 64 1 67 3 118 49 102 94 130
229 61 304 -25 28 -34 31 -86 31 -42 -1 -65 -6 -83 -20z"/>
<path fill="#ffffff" stroke="none" d="M1950 5786 c0 -6 -13 -26 -29 -45 -31
-38 -51 -35 -51 7 0 34 47 77 67 61 7 -6 13 -17 13 -23z"/>
<path fill="#000000" stroke="none" d="M2662 5401 c-46 -9 -123 -79 -155 -141
-20 -39 -27 -66 -27 -109 0 -53 3 -61 38 -99 32 -34 46 -42 75 -42 20 0 48 5
63 10 40 15 141 123 149 159 4 17 11 33 16 36 5 4 9 30 9 59 0 45 -5 58 -32
89 -35 39 -76 50 -136 38z"/>
<path fill="#ffffff" stroke="none" d="M2693 5268 c8 -24 -14 -68 -34 -68 -24
0 -33 21 -25 55 5 18 13 25 30 25 14 0 26 -6 29 -12z"/>
<path fill="#000000" stroke="none" d="M6915 4470 c-11 -5 -35 -9 -53 -9 -31
-1 -85 -21 -159 -58 -62 -33 -172 -148 -214 -228 -74 -137 -88 -370 -33 -545
29 -95 64 -151 64 -104 0 46 105 258 153 309 11 11 31 35 45 53 24 32 170 151
202 165 8 4 35 18 59 32 24 14 49 25 55 25 6 1 29 9 51 20 22 11 54 19 72 20
17 0 44 5 58 10 47 18 176 20 255 4 85 -17 210 -55 217 -66 2 -5 9 -8 14 -8
24 0 -81 127 -169 203 -17 15 -36 27 -41 27 -5 0 -14 7 -21 15 -15 18 -133 76
-205 101 -100 34 -305 54 -350 34z"/>
<path fill="#000000" stroke="none" d="M5305 2879 c-65 -6 -151 -26 -175 -40
-8 -5 -22 -12 -30 -15 -8 -3 -22 -10 -30 -15 -8 -5 -25 -13 -36 -18 -12 -5
-53 -40 -92 -78 -86 -83 -132 -170 -157 -296 -16 -82 -17 -194 -2 -254 3 -11
9 -43 13 -69 4 -26 13 -59 20 -73 8 -14 14 -31 14 -37 0 -15 63 -135 92 -176
48 -66 96 -116 177 -184 29 -25 34 -26 28 -9 -56 179 -57 187 -57 323 0 163
17 235 93 387 57 115 172 244 275 311 31 20 69 45 84 55 15 11 33 19 40 19 8
0 22 6 33 13 11 7 49 22 85 32 36 10 69 21 73 25 7 6 -22 21 -108 53 -104 38
-236 56 -340 46z"/>
<path fill="#000000" stroke="none" d="M7323 2565 c-30 -35 -36 -161 -8 -189
8 -8 15 -19 15 -24 0 -6 25 -33 56 -61 49 -43 65 -51 111 -57 68 -8 107 0 135
28 19 19 22 33 22 94 -1 64 -4 75 -34 115 -19 25 -55 61 -81 82 -45 35 -51 37
-121 37 -65 0 -75 -3 -95 -25z"/>
<path fill="#ffffff" stroke="none" d="M7478 2439 c18 -22 21 -33 13 -43 -17
-21 -61 -7 -72 22 -21 56 20 71 59 21z"/>
<path fill="#000000" stroke="none" d="M6677 1926 c-45 -24 -71 -75 -63 -121
14 -82 21 -98 65 -145 63 -68 107 -90 179 -90 53 0 61 3 90 33 29 30 32 39 32
94 0 42 -5 64 -15 73 -8 7 -15 19 -15 26 0 7 -24 37 -53 66 -39 39 -68 58
-109 71 -65 20 -63 20 -111 -7z"/>
<path fill="#ffffff" stroke="none" d="M6805 1809 c27 -30 28 -32 11 -45 -25
-18 -59 -3 -71 30 -7 21 -6 29 5 36 21 14 22 13 55 -21z"/>
</g>
</svg>
