<?xml version="1.0" standalone="no"?>
<!DOCTYPE svg PUBLIC "-//W3C//DTD SVG 20010904//EN"
 "http://www.w3.org/TR/2001/REC-SVG-20010904/DTD/svg10.dtd">
<svg version="1.0" xmlns="http://www.w3.org/2000/svg"
 width="1078.000000pt" height="1078.000000pt" viewBox="0 0 1078.000000 1078.000000"
 preserveAspectRatio="xMidYMid meet">
<metadata>
Created by potrace 1.16, written by Peter Selinger 2001-2019
</metadata>
<g transform="translate(0.000000,1078.000000) scale(0.100000,-0.100000)"
fill="#000000" stroke="none">
<path fill="#000000" stroke="none" d="M5205 10773 c-93 -12 -212 -37 -298
-64 -452 -138 -778 -432 -922 -829 -102 -283 -98 -629 11 -1015 122 -432 419
-979 726 -1336 26 -31 48 -60 48 -64 0 -15 -678 11 -915 36 -211 21 -264 39
-347 117 -82 77 -222 303 -267 434 -7 20 -15 28 -21 22 -28 -28 -204 -437
-267 -619 -85 -248 -83 -342 10 -520 72 -138 271 -317 454 -409 110 -55 109
-31 -7 107 -159 190 -223 300 -224 384 -1 46 3 56 33 87 63 65 165 87 371 81
467 -14 978 -132 1254 -290 140 -80 221 -153 289 -262 110 -175 88 -433 -54
-654 l-30 -47 16 -153 c13 -139 19 -214 41 -559 18 -284 1 -1058 -31 -1395
-49 -525 -68 -1150 -45 -1540 37 -633 145 -1361 336 -2262 3 -15 12 -23 24
-23 12 0 22 9 25 23 20 90 123 618 159 824 79 439 137 888 168 1283 19 244 16
1007 -5 1280 -9 118 -26 343 -39 500 -19 246 -22 360 -23 835 0 543 4 646 40
1034 l15 155 -30 46 c-40 62 -83 161 -104 239 -20 73 -23 217 -6 283 33 124
138 259 269 347 269 182 828 322 1336 336 162 4 240 -6 310 -40 67 -34 90 -67
89 -130 -1 -84 -62 -189 -215 -370 -69 -82 -99 -124 -99 -139 0 -13 33 -5 83
20 185 93 382 270 454 410 78 150 89 240 48 397 -36 141 -178 494 -277 691
l-30 59 -58 -120 c-96 -201 -202 -344 -294 -398 -97 -57 -366 -85 -961 -101
l-250 -7 25 31 c342 421 565 807 711 1227 145 420 170 834 69 1135 -121 359
-397 644 -780 806 -110 46 -277 91 -400 109 -95 13 -338 18 -415 8z"/>
<path fill="#ffffff" stroke="none" d="M5518 10440 c253 -28 466 -119 648
-277 166 -145 298 -367 340 -573 13 -67 16 -116 11 -240 -16 -456 -181 -913
-479 -1333 -86 -120 -166 -215 -310 -364 -75 -78 -144 -153 -154 -167 -9 -15
-21 -26 -26 -26 -16 0 -2 356 16 425 35 126 113 237 227 321 50 36 55 54 16
54 -38 0 -122 57 -181 122 -88 97 -165 262 -216 466 -6 23 -15 42 -20 42 -5 0
-14 -19 -20 -42 -65 -248 -137 -395 -243 -495 -56 -53 -123 -93 -156 -93 -37
0 -31 -18 18 -54 116 -85 192 -194 226 -321 21 -76 34 -425 16 -425 -6 0 -11
4 -11 9 0 4 -70 82 -156 172 -86 90 -185 200 -221 244 -233 289 -432 683 -518
1025 -54 218 -79 502 -55 647 62 387 381 735 775 844 159 44 310 56 473 39z"/>
</g>
</svg>
