999
"DXF R12 Output" (www.mydxf.blogspot.com)
 0 
SECTION
 2 
HEADER
 9 
$ACADVER
 1 
AC1009
 9 
$EXTMIN
 10 
 0 
 20 
 0 
 9 
$EXTMAX
 10 
 8.5 
 20 
 11 
 0 
ENDSEC
 0 
SECTION
 2 
ENTITIES
0
LINE
8
Layer 1
10
183.620949
20
380.047739
11
178.271953
21
379.117287
0
LINE
8
Layer 1
10
178.271953
20
379.117287
11
173.108165
21
377.789960
0
LINE
8
Layer 1
10
173.108165
20
377.789960
11
170.170943
21
376.813111
0
LINE
8
Layer 1
10
170.170943
20
376.813111
11
167.340796
21
375.710017
0
LINE
8
Layer 1
10
167.340796
20
375.710017
11
164.620615
21
374.483416
0
LINE
8
Layer 1
10
164.620615
20
374.483416
11
162.013297
21
373.136047
0
LINE
8
Layer 1
10
162.013297
20
373.136047
11
159.521733
21
371.670649
0
LINE
8
Layer 1
10
159.521733
20
371.670649
11
157.148819
21
370.089960
0
LINE
8
Layer 1
10
157.148819
20
370.089960
11
154.897447
21
368.396721
0
LINE
8
Layer 1
10
154.897447
20
368.396721
11
152.770513
21
366.593668
0
LINE
8
Layer 1
10
152.770513
20
366.593668
11
150.770909
21
364.683543
0
LINE
8
Layer 1
10
150.770909
20
364.683543
11
148.901530
21
362.669082
0
LINE
8
Layer 1
10
148.901530
20
362.669082
11
147.165270
21
360.553026
0
LINE
8
Layer 1
10
147.165270
20
360.553026
11
145.565022
21
358.338112
0
LINE
8
Layer 1
10
145.565022
20
358.338112
11
144.103681
21
356.027080
0
LINE
8
Layer 1
10
144.103681
20
356.027080
11
142.784139
21
353.622669
0
LINE
8
Layer 1
10
142.784139
20
353.622669
11
141.609292
21
351.127617
0
LINE
8
Layer 1
10
141.609292
20
351.127617
11
140.582033
21
348.544664
0
LINE
8
Layer 1
10
140.582033
20
348.544664
11
139.407875
21
344.698212
0
LINE
8
Layer 1
10
139.407875
20
344.698212
11
138.583876
21
340.652910
0
LINE
8
Layer 1
10
138.583876
20
340.652910
11
138.109624
21
336.418265
0
LINE
8
Layer 1
10
138.109624
20
336.418265
11
137.984705
21
332.003786
0
LINE
8
Layer 1
10
137.984705
20
332.003786
11
138.208705
21
327.418981
0
LINE
8
Layer 1
10
138.208705
20
327.418981
11
138.781212
21
322.673359
0
LINE
8
Layer 1
10
138.781212
20
322.673359
11
139.701811
21
317.776428
0
LINE
8
Layer 1
10
139.701811
20
317.776428
11
140.970089
21
312.737697
0
LINE
8
Layer 1
10
140.970089
20
312.737697
11
142.862068
21
306.853539
0
LINE
8
Layer 1
10
142.862068
20
306.853539
11
145.264610
21
300.715133
0
LINE
8
Layer 1
10
145.264610
20
300.715133
11
148.109502
21
294.448569
0
LINE
8
Layer 1
10
148.109502
20
294.448569
11
151.328533
21
288.179938
0
LINE
8
Layer 1
10
151.328533
20
288.179938
11
154.853488
21
282.035331
0
LINE
8
Layer 1
10
154.853488
20
282.035331
11
158.616155
21
276.140838
0
LINE
8
Layer 1
10
158.616155
20
276.140838
11
162.548320
21
270.622549
0
LINE
8
Layer 1
10
162.548320
20
270.622549
11
166.581772
21
265.606556
0
LINE
8
Layer 1
10
166.581772
20
265.606556
11
168.275106
21
263.348777
0
LINE
8
Layer 1
10
168.275106
20
263.348777
11
167.231035
21
263.215245
0
LINE
8
Layer 1
10
167.231035
20
263.215245
11
164.407226
21
263.199949
0
LINE
8
Layer 1
10
164.407226
20
263.199949
11
155.270827
21
263.454610
0
LINE
8
Layer 1
10
155.270827
20
263.454610
11
144.566771
21
263.973856
0
LINE
8
Layer 1
10
144.566771
20
263.973856
11
135.995919
21
264.618778
0
LINE
8
Layer 1
10
135.995919
20
264.618778
11
131.354683
21
265.189286
0
LINE
8
Layer 1
10
131.354683
20
265.189286
11
128.181886
21
265.928466
0
LINE
8
Layer 1
10
128.181886
20
265.928466
11
126.951849
21
266.426421
0
LINE
8
Layer 1
10
126.951849
20
266.426421
11
125.855756
21
267.044678
0
LINE
8
Layer 1
10
125.855756
20
267.044678
11
123.754522
21
268.746280
0
LINE
8
Layer 1
10
123.754522
20
268.746280
11
122.584361
21
269.994508
0
LINE
8
Layer 1
10
122.584361
20
269.994508
11
121.285628
21
271.634650
0
LINE
8
Layer 1
10
121.285628
20
271.634650
11
118.555457
21
275.687188
0
LINE
8
Layer 1
10
118.555457
20
275.687188
11
116.070025
21
280.096913
0
LINE
8
Layer 1
10
116.070025
20
280.096913
11
115.077217
21
282.183539
0
LINE
8
Layer 1
10
115.077217
20
282.183539
11
114.335350
21
284.056846
0
LINE
8
Layer 1
10
114.335350
20
284.056846
11
113.951704
21
284.788860
0
LINE
8
Layer 1
10
113.951704
20
284.788860
11
113.764842
21
284.900206
0
LINE
8
Layer 1
10
113.764842
20
284.900206
11
113.594516
21
284.832957
0
LINE
8
Layer 1
10
113.594516
20
284.832957
11
112.997343
21
283.874393
0
LINE
8
Layer 1
10
112.997343
20
283.874393
11
112.018591
21
281.907105
0
LINE
8
Layer 1
10
112.018591
20
281.907105
11
109.347951
21
275.951771
0
LINE
8
Layer 1
10
109.347951
20
275.951771
11
106.445801
21
268.977791
0
LINE
8
Layer 1
10
106.445801
20
268.977791
11
104.175343
21
262.995999
0
LINE
8
Layer 1
10
104.175343
20
262.995999
11
103.195006
21
259.953427
0
LINE
8
Layer 1
10
103.195006
20
259.953427
11
102.504058
21
257.321785
0
LINE
8
Layer 1
10
102.504058
20
257.321785
11
102.104151
21
255.002683
0
LINE
8
Layer 1
10
102.104151
20
255.002683
11
101.996939
21
252.897729
0
LINE
8
Layer 1
10
101.996939
20
252.897729
11
102.184077
21
250.908529
0
LINE
8
Layer 1
10
102.184077
20
250.908529
11
102.667217
21
248.936693
0
LINE
8
Layer 1
10
102.667217
20
248.936693
11
103.448014
21
246.883828
0
LINE
8
Layer 1
10
103.448014
20
246.883828
11
104.528121
21
244.651543
0
LINE
8
Layer 1
10
104.528121
20
244.651543
11
105.680782
21
242.766937
0
LINE
8
Layer 1
10
105.680782
20
242.766937
11
107.194351
21
240.799648
0
LINE
8
Layer 1
10
107.194351
20
240.799648
11
109.009711
21
238.802594
0
LINE
8
Layer 1
10
109.009711
20
238.802594
11
111.067744
21
236.828691
0
LINE
8
Layer 1
10
111.067744
20
236.828691
11
113.309331
21
234.930855
0
LINE
8
Layer 1
10
113.309331
20
234.930855
11
115.675355
21
233.162005
0
LINE
8
Layer 1
10
115.675355
20
233.162005
11
118.106698
21
231.575055
0
LINE
8
Layer 1
10
118.106698
20
231.575055
11
120.544243
21
230.222923
0
LINE
8
Layer 1
10
120.544243
20
230.222923
11
122.718237
21
229.309559
0
LINE
8
Layer 1
10
122.718237
20
229.309559
11
123.250436
21
229.280964
0
LINE
8
Layer 1
10
123.250436
20
229.280964
11
123.410564
21
229.557054
0
LINE
8
Layer 1
10
123.410564
20
229.557054
11
123.196968
21
230.152298
0
LINE
8
Layer 1
10
123.196968
20
230.152298
11
122.607994
21
231.081166
0
LINE
8
Layer 1
10
122.607994
20
231.081166
11
120.297298
21
233.997647
0
LINE
8
Layer 1
10
120.297298
20
233.997647
11
116.701167
21
238.525333
0
LINE
8
Layer 1
10
116.701167
20
238.525333
11
114.255975
21
242.173278
0
LINE
8
Layer 1
10
114.255975
20
242.173278
11
113.431907
21
243.723158
0
LINE
8
Layer 1
10
113.431907
20
243.723158
11
112.855887
21
245.120076
0
LINE
8
Layer 1
10
112.855887
20
245.120076
11
112.514685
21
246.386356
0
LINE
8
Layer 1
10
112.514685
20
246.386356
11
112.395071
21
247.544323
0
LINE
8
Layer 1
10
112.395071
20
247.544323
11
112.413261
21
248.554701
0
LINE
8
Layer 1
10
112.413261
20
248.554701
11
112.567050
21
249.277345
0
LINE
8
Layer 1
10
112.567050
20
249.277345
11
112.925891
21
249.900769
0
LINE
8
Layer 1
10
112.925891
20
249.900769
11
113.559238
21
250.613491
0
LINE
8
Layer 1
10
113.559238
20
250.613491
11
114.461647
21
251.403314
0
LINE
8
Layer 1
10
114.461647
20
251.403314
11
115.519912
21
252.057125
0
LINE
8
Layer 1
10
115.519912
20
252.057125
11
116.760905
21
252.581124
0
LINE
8
Layer 1
10
116.760905
20
252.581124
11
118.211498
21
252.981514
0
LINE
8
Layer 1
10
118.211498
20
252.981514
11
121.848970
21
253.436266
0
LINE
8
Layer 1
10
121.848970
20
253.436266
11
126.647302
21
253.470993
0
LINE
8
Layer 1
10
126.647302
20
253.470993
11
132.878864
21
253.118215
0
LINE
8
Layer 1
10
132.878864
20
253.118215
11
139.140604
21
252.447937
0
LINE
8
Layer 1
10
139.140604
20
252.447937
11
145.317182
21
251.486617
0
LINE
8
Layer 1
10
145.317182
20
251.486617
11
151.293255
21
250.260713
0
LINE
8
Layer 1
10
151.293255
20
250.260713
11
156.953482
21
248.796684
0
LINE
8
Layer 1
10
156.953482
20
248.796684
11
162.182520
21
247.120989
0
LINE
8
Layer 1
10
162.182520
20
247.120989
11
166.865028
21
245.260085
0
LINE
8
Layer 1
10
166.865028
20
245.260085
11
170.885663
21
243.240431
0
LINE
8
Layer 1
10
170.885663
20
243.240431
11
174.224927
21
241.146363
0
LINE
8
Layer 1
10
174.224927
20
241.146363
11
176.935806
21
239.002685
0
LINE
8
Layer 1
10
176.935806
20
239.002685
11
179.170434
21
236.667185
0
LINE
8
Layer 1
10
179.170434
20
236.667185
11
181.080947
21
233.997647
0
LINE
8
Layer 1
10
181.080947
20
233.997647
11
182.318702
21
231.553557
0
LINE
8
Layer 1
10
182.318702
20
231.553557
11
183.124855
21
228.884571
0
LINE
8
Layer 1
10
183.124855
20
228.884571
11
183.504367
21
226.040299
0
LINE
8
Layer 1
10
183.504367
20
226.040299
11
183.462199
21
223.070349
0
LINE
8
Layer 1
10
183.462199
20
223.070349
11
183.003312
21
220.024331
0
LINE
8
Layer 1
10
183.003312
20
220.024331
11
182.132667
21
216.951855
0
LINE
8
Layer 1
10
182.132667
20
216.951855
11
180.855225
21
213.902531
0
LINE
8
Layer 1
10
180.855225
20
213.902531
11
179.175946
21
210.925966
0
LINE
8
Layer 1
10
179.175946
20
210.925966
11
178.117612
21
209.267910
0
LINE
8
Layer 1
10
178.117612
20
209.267910
11
178.682057
21
203.870406
0
LINE
8
Layer 1
10
178.682057
20
203.870406
11
179.286189
21
196.735471
0
LINE
8
Layer 1
10
179.286189
20
196.735471
11
180.128447
21
184.150116
0
LINE
8
Layer 1
10
180.128447
20
184.150116
11
180.384211
21
173.905774
0
LINE
8
Layer 1
10
180.384211
20
173.905774
11
180.243100
21
160.244997
0
LINE
8
Layer 1
10
180.243100
20
160.244997
11
179.771259
21
146.233647
0
LINE
8
Layer 1
10
179.771259
20
146.233647
11
179.034835
21
134.937585
0
LINE
8
Layer 1
10
179.034835
20
134.937585
11
177.943428
21
120.570150
0
LINE
8
Layer 1
10
177.943428
20
120.570150
11
177.288584
21
105.987740
0
LINE
8
Layer 1
10
177.288584
20
105.987740
11
177.109990
21
92.298300
0
LINE
8
Layer 1
10
177.109990
20
92.298300
11
177.211689
21
86.134676
0
LINE
8
Layer 1
10
177.211689
20
86.134676
11
177.447334
21
80.609773
0
LINE
8
Layer 1
10
177.447334
20
80.609773
11
178.055049
21
72.073234
0
LINE
8
Layer 1
10
178.055049
20
72.073234
11
178.902543
21
63.190257
0
LINE
8
Layer 1
10
178.902543
20
63.190257
11
179.994777
21
53.928594
0
LINE
8
Layer 1
10
179.994777
20
53.928594
11
181.336711
21
44.256000
0
LINE
8
Layer 1
10
181.336711
20
44.256000
11
182.933308
21
34.140229
0
LINE
8
Layer 1
10
182.933308
20
34.140229
11
184.789526
21
23.549034
0
LINE
8
Layer 1
10
184.789526
20
23.549034
11
186.910328
21
12.450170
0
LINE
8
Layer 1
10
186.910328
20
12.450170
11
189.300675
21
0.811389
0
LINE
8
Layer 1
10
189.300675
20
0.811389
11
189.604946
21
0.207257
0
LINE
8
Layer 1
10
189.604946
20
0.207257
11
190.147342
21
0.000000
0
LINE
8
Layer 1
10
190.147342
20
0.000000
11
190.707377
21
0.220486
0
LINE
8
Layer 1
10
190.707377
20
0.220486
11
191.029287
21
0.811389
0
LINE
8
Layer 1
10
191.029287
20
0.811389
11
193.622205
21
13.811259
0
LINE
8
Layer 1
10
193.622205
20
13.811259
11
196.638457
21
29.880297
0
LINE
8
Layer 1
10
196.638457
20
29.880297
11
198.586453
21
41.526380
0
LINE
8
Layer 1
10
198.586453
20
41.526380
11
200.236793
21
53.093089
0
LINE
8
Layer 1
10
200.236793
20
53.093089
11
201.569632
21
64.368756
0
LINE
8
Layer 1
10
201.569632
20
64.368756
11
202.565128
21
75.141714
0
LINE
8
Layer 1
10
202.565128
20
75.141714
11
202.924520
21
84.474346
0
LINE
8
Layer 1
10
202.924520
20
84.474346
11
203.006100
21
97.335860
0
LINE
8
Layer 1
10
203.006100
20
97.335860
11
202.823097
21
110.389197
0
LINE
8
Layer 1
10
202.823097
20
110.389197
11
202.388739
21
120.297298
0
LINE
8
Layer 1
10
202.388739
20
120.297298
11
201.012904
21
137.936198
0
LINE
8
Layer 1
10
201.012904
20
137.936198
11
200.608312
21
143.843576
0
LINE
8
Layer 1
10
200.608312
20
143.843576
11
200.369085
21
149.635198
0
LINE
8
Layer 1
10
200.369085
20
149.635198
11
200.201515
21
167.393161
0
LINE
8
Layer 1
10
200.201515
20
167.393161
11
200.243407
21
179.249258
0
LINE
8
Layer 1
10
200.243407
20
179.249258
11
200.430821
21
187.682306
0
LINE
8
Layer 1
10
200.430821
20
187.682306
11
200.856359
21
195.090093
0
LINE
8
Layer 1
10
200.856359
20
195.090093
11
201.612627
21
203.870406
0
LINE
8
Layer 1
10
201.612627
20
203.870406
11
202.141794
21
209.338465
0
LINE
8
Layer 1
10
202.141794
20
209.338465
11
201.083460
21
210.961244
0
LINE
8
Layer 1
10
201.083460
20
210.961244
11
200.019063
21
212.814431
0
LINE
8
Layer 1
10
200.019063
20
212.814431
11
198.997660
21
214.965274
0
LINE
8
Layer 1
10
198.997660
20
214.965274
11
198.101935
21
217.221951
0
LINE
8
Layer 1
10
198.101935
20
217.221951
11
197.414569
21
219.392638
0
LINE
8
Layer 1
10
197.414569
20
219.392638
11
196.999503
21
221.711602
0
LINE
8
Layer 1
10
196.999503
20
221.711602
11
196.819256
21
224.477051
0
LINE
8
Layer 1
10
196.819256
20
224.477051
11
196.883748
21
227.196198
0
LINE
8
Layer 1
10
196.883748
20
227.196198
11
197.202902
21
229.376256
0
LINE
8
Layer 1
10
197.202902
20
229.376256
11
197.755358
21
231.030867
0
LINE
8
Layer 1
10
197.755358
20
231.030867
11
198.526922
21
232.697881
0
LINE
8
Layer 1
10
198.526922
20
232.697881
11
199.498577
21
234.353319
0
LINE
8
Layer 1
10
199.498577
20
234.353319
11
200.651307
21
235.973204
0
LINE
8
Layer 1
10
200.651307
20
235.973204
11
201.966094
21
237.533558
0
LINE
8
Layer 1
10
201.966094
20
237.533558
11
203.423922
21
239.010402
0
LINE
8
Layer 1
10
203.423922
20
239.010402
11
205.005773
21
240.379760
0
LINE
8
Layer 1
10
205.005773
20
240.379760
11
206.692630
21
241.617652
0
LINE
8
Layer 1
10
206.692630
20
241.617652
11
210.707340
21
243.950121
0
LINE
8
Layer 1
10
210.707340
20
243.950121
11
215.540192
21
246.108957
0
LINE
8
Layer 1
10
215.540192
20
246.108957
11
221.050212
21
248.059434
0
LINE
8
Layer 1
10
221.050212
20
248.059434
11
227.096428
21
249.766824
0
LINE
8
Layer 1
10
227.096428
20
249.766824
11
233.537865
21
251.196402
0
LINE
8
Layer 1
10
233.537865
20
251.196402
11
240.233550
21
252.313440
0
LINE
8
Layer 1
10
240.233550
20
252.313440
11
247.042510
21
253.083213
0
LINE
8
Layer 1
10
247.042510
20
253.083213
11
253.823771
21
253.470993
0
LINE
8
Layer 1
10
253.823771
20
253.470993
11
257.596291
21
253.478710
0
LINE
8
Layer 1
10
257.596291
20
253.478710
11
260.508914
21
253.268146
0
LINE
8
Layer 1
10
260.508914
20
253.268146
11
262.812995
21
252.806227
0
LINE
8
Layer 1
10
262.812995
20
252.806227
11
264.759889
21
252.059881
0
LINE
8
Layer 1
10
264.759889
20
252.059881
11
266.252581
21
251.149824
0
LINE
8
Layer 1
10
266.252581
20
251.149824
11
267.229335
21
250.150470
0
LINE
8
Layer 1
10
267.229335
20
250.150470
11
267.756297
21
248.959293
0
LINE
8
Layer 1
10
267.756297
20
248.959293
11
267.899613
21
247.473767
0
LINE
8
Layer 1
10
267.899613
20
247.473767
11
267.784960
21
246.324000
0
LINE
8
Layer 1
10
267.784960
20
246.324000
11
267.458641
21
245.082042
0
LINE
8
Layer 1
10
267.458641
20
245.082042
11
266.907425
21
243.725156
0
LINE
8
Layer 1
10
266.907425
20
243.725156
11
266.118084
21
242.230604
0
LINE
8
Layer 1
10
266.118084
20
242.230604
11
263.772111
21
238.737551
0
LINE
8
Layer 1
10
263.772111
20
238.737551
11
260.314886
21
234.420981
0
LINE
8
Layer 1
10
260.314886
20
234.420981
11
257.655822
21
231.082819
0
LINE
8
Layer 1
10
257.655822
20
231.082819
11
257.025783
21
230.100002
0
LINE
8
Layer 1
10
257.025783
20
230.100002
11
256.822384
21
229.517367
0
LINE
8
Layer 1
10
256.822384
20
229.517367
11
257.031846
21
229.310110
0
LINE
8
Layer 1
10
257.031846
20
229.310110
11
257.624954
21
229.367436
0
LINE
8
Layer 1
10
257.624954
20
229.367436
11
259.750441
21
230.222923
0
LINE
8
Layer 1
10
259.750441
20
230.222923
11
262.208243
21
231.583805
0
LINE
8
Layer 1
10
262.208243
20
231.583805
11
264.649095
21
233.172478
0
LINE
8
Layer 1
10
264.649095
20
233.172478
11
267.016359
21
234.938917
0
LINE
8
Layer 1
10
267.016359
20
234.938917
11
269.253399
21
236.833101
0
LINE
8
Layer 1
10
269.253399
20
236.833101
11
271.303576
21
238.805006
0
LINE
8
Layer 1
10
271.303576
20
238.805006
11
273.110255
21
240.804609
0
LINE
8
Layer 1
10
273.110255
20
240.804609
11
274.616796
21
242.781889
0
LINE
8
Layer 1
10
274.616796
20
242.781889
11
275.766563
21
244.686821
0
LINE
8
Layer 1
10
275.766563
20
244.686821
11
277.395405
21
248.328702
0
LINE
8
Layer 1
10
277.395405
20
248.328702
11
277.892946
21
249.983245
0
LINE
8
Layer 1
10
277.892946
20
249.983245
11
278.187502
21
251.596860
0
LINE
8
Layer 1
10
278.187502
20
251.596860
11
278.285273
21
253.222050
0
LINE
8
Layer 1
10
278.285273
20
253.222050
11
278.192463
21
254.911319
0
LINE
8
Layer 1
10
278.192463
20
254.911319
11
277.459897
21
258.692107
0
LINE
8
Layer 1
10
277.459897
20
258.692107
11
275.888381
21
263.622180
0
LINE
8
Layer 1
10
275.888381
20
263.622180
11
273.407360
21
270.139753
0
LINE
8
Layer 1
10
273.407360
20
270.139753
11
270.509619
21
277.027744
0
LINE
8
Layer 1
10
270.509619
20
277.027744
11
267.687946
21
283.069067
0
LINE
8
Layer 1
10
267.687946
20
283.069067
11
266.629612
21
285.150457
0
LINE
8
Layer 1
10
266.629612
20
285.150457
11
264.583500
21
280.917121
0
LINE
8
Layer 1
10
264.583500
20
280.917121
11
261.990582
21
275.999727
0
LINE
8
Layer 1
10
261.990582
20
275.999727
11
259.344747
21
271.952150
0
LINE
8
Layer 1
10
259.344747
20
271.952150
11
258.026790
21
270.286584
0
LINE
8
Layer 1
10
258.026790
20
270.286584
11
256.725370
21
268.876919
0
LINE
8
Layer 1
10
256.725370
20
268.876919
11
255.450408
21
267.735971
0
LINE
8
Layer 1
10
255.450408
20
267.735971
11
254.211827
21
266.876557
0
LINE
8
Layer 1
10
254.211827
20
266.876557
11
252.633559
21
266.169278
0
LINE
8
Layer 1
10
252.633559
20
266.169278
11
250.422771
21
265.550883
0
LINE
8
Layer 1
10
250.422771
20
265.550883
11
247.515797
21
265.014344
0
LINE
8
Layer 1
10
247.515797
20
265.014344
11
243.848973
21
264.552632
0
LINE
8
Layer 1
10
243.848973
20
264.552632
11
233.981111
21
263.825579
0
LINE
8
Layer 1
10
233.981111
20
263.825579
11
220.309861
21
263.313499
0
LINE
8
Layer 1
10
220.309861
20
263.313499
11
211.490411
21
263.066555
0
LINE
8
Layer 1
10
211.490411
20
263.066555
11
212.372356
21
264.160166
0
LINE
8
Layer 1
10
212.372356
20
264.160166
11
216.702844
21
269.676526
0
LINE
8
Layer 1
10
216.702844
20
269.676526
11
220.657127
21
275.105655
0
LINE
8
Layer 1
10
220.657127
20
275.105655
11
224.252569
21
280.476080
0
LINE
8
Layer 1
10
224.252569
20
280.476080
11
227.506532
21
285.816326
0
LINE
8
Layer 1
10
227.506532
20
285.816326
11
230.436381
21
291.154918
0
LINE
8
Layer 1
10
230.436381
20
291.154918
11
233.059478
21
296.520382
0
LINE
8
Layer 1
10
233.059478
20
296.520382
11
235.393188
21
301.941243
0
LINE
8
Layer 1
10
235.393188
20
301.941243
11
237.454872
21
307.446027
0
LINE
8
Layer 1
10
237.454872
20
307.446027
11
239.174251
21
312.984986
0
LINE
8
Layer 1
10
239.174251
20
312.984986
11
240.494275
21
318.459866
0
LINE
8
Layer 1
10
240.494275
20
318.459866
11
241.412462
21
323.826433
0
LINE
8
Layer 1
10
241.412462
20
323.826433
11
241.926333
21
329.040450
0
LINE
8
Layer 1
10
241.926333
20
329.040450
11
242.033407
21
334.057684
0
LINE
8
Layer 1
10
242.033407
20
334.057684
11
241.731203
21
338.833898
0
LINE
8
Layer 1
10
241.731203
20
338.833898
11
241.017241
21
343.324859
0
LINE
8
Layer 1
10
241.017241
20
343.324859
11
239.889040
21
347.486330
0
LINE
8
Layer 1
10
239.889040
20
347.486330
11
238.035302
21
352.109858
0
LINE
8
Layer 1
10
238.035302
20
352.109858
11
235.688777
21
356.468389
0
LINE
8
Layer 1
10
235.688777
20
356.468389
11
232.869309
21
360.541665
0
LINE
8
Layer 1
10
232.869309
20
360.541665
11
229.596742
21
364.309431
0
LINE
8
Layer 1
10
229.596742
20
364.309431
11
225.890919
21
367.751428
0
LINE
8
Layer 1
10
225.890919
20
367.751428
11
221.771685
21
370.847399
0
LINE
8
Layer 1
10
221.771685
20
370.847399
11
217.258883
21
373.577088
0
LINE
8
Layer 1
10
217.258883
20
373.577088
11
212.372356
21
375.920237
0
LINE
8
Layer 1
10
212.372356
20
375.920237
11
209.140579
21
377.116375
0
LINE
8
Layer 1
10
209.140579
20
377.116375
11
205.488775
21
378.213294
0
LINE
8
Layer 1
10
205.488775
20
378.213294
11
201.750982
21
379.125004
0
LINE
8
Layer 1
10
201.750982
20
379.125004
11
198.261236
21
379.765517
0
LINE
8
Layer 1
10
198.261236
20
379.765517
11
194.941816
21
380.052700
0
LINE
8
Layer 1
10
194.941816
20
380.052700
11
190.702967
21
380.210899
0
LINE
8
Layer 1
10
190.702967
20
380.210899
11
186.583182
21
380.216963
0
LINE
8
Layer 1
10
186.583182
20
380.216963
11
183.620949
21
380.047739
0
LINE
8
Layer 1
10
183.620949
20
380.047739
11
183.620949
21
380.047739
0
LINE
8
Layer 1
10
194.662900
20
368.300232
11
197.944356
21
367.825360
0
LINE
8
Layer 1
10
197.944356
20
367.825360
11
201.097240
21
367.140474
0
LINE
8
Layer 1
10
201.097240
20
367.140474
11
204.125275
21
366.243922
0
LINE
8
Layer 1
10
204.125275
20
366.243922
11
207.032179
21
365.134049
0
LINE
8
Layer 1
10
207.032179
20
365.134049
11
209.821675
21
363.809203
0
LINE
8
Layer 1
10
209.821675
20
363.809203
11
212.497482
21
362.267728
0
LINE
8
Layer 1
10
212.497482
20
362.267728
11
215.063322
21
360.507972
0
LINE
8
Layer 1
10
215.063322
20
360.507972
11
217.522915
21
358.528281
0
LINE
8
Layer 1
10
217.522915
20
358.528281
11
219.658875
21
356.489128
0
LINE
8
Layer 1
10
219.658875
20
356.489128
11
221.659237
21
354.233760
0
LINE
8
Layer 1
10
221.659237
20
354.233760
11
223.500848
21
351.800626
0
LINE
8
Layer 1
10
223.500848
20
351.800626
11
225.160558
21
349.228171
0
LINE
8
Layer 1
10
225.160558
20
349.228171
11
226.615217
21
346.554844
0
LINE
8
Layer 1
10
226.615217
20
346.554844
11
227.841671
21
343.819092
0
LINE
8
Layer 1
10
227.841671
20
343.819092
11
228.816772
21
341.059363
0
LINE
8
Layer 1
10
228.816772
20
341.059363
11
229.517367
21
338.314102
0
LINE
8
Layer 1
10
229.517367
20
338.314102
11
229.949520
21
334.834829
0
LINE
8
Layer 1
10
229.949520
20
334.834829
11
229.905423
21
329.847430
0
LINE
8
Layer 1
10
229.905423
20
329.847430
11
229.448465
21
323.815891
0
LINE
8
Layer 1
10
229.448465
20
323.815891
11
228.505335
21
317.796754
0
LINE
8
Layer 1
10
228.505335
20
317.796754
11
227.082647
21
311.805729
0
LINE
8
Layer 1
10
227.082647
20
311.805729
11
225.187017
21
305.858526
0
LINE
8
Layer 1
10
225.187017
20
305.858526
11
222.825058
21
299.970854
0
LINE
8
Layer 1
10
222.825058
20
299.970854
11
220.003385
21
294.158423
0
LINE
8
Layer 1
10
220.003385
20
294.158423
11
216.728613
21
288.436943
0
LINE
8
Layer 1
10
216.728613
20
288.436943
11
213.007356
21
282.822123
0
LINE
8
Layer 1
10
213.007356
20
282.822123
11
210.733041
21
279.768939
0
LINE
8
Layer 1
10
210.733041
20
279.768939
11
208.306590
21
276.785209
0
LINE
8
Layer 1
10
208.306590
20
276.785209
11
202.071238
21
269.981003
0
LINE
8
Layer 1
10
202.071238
20
269.981003
11
196.638457
21
264.089611
0
LINE
8
Layer 1
10
196.638457
20
264.089611
11
196.126929
21
263.432562
0
LINE
8
Layer 1
10
196.126929
20
263.432562
11
195.721234
21
263.172388
0
LINE
8
Layer 1
10
195.721234
20
263.172388
11
195.557386
21
263.716782
0
LINE
8
Layer 1
10
195.557386
20
263.716782
11
195.482007
21
265.172750
0
LINE
8
Layer 1
10
195.482007
20
265.172750
11
195.553665
21
269.756107
0
LINE
8
Layer 1
10
195.553665
20
269.756107
11
195.850219
21
274.795872
0
LINE
8
Layer 1
10
195.850219
20
274.795872
11
196.285679
21
278.165453
0
LINE
8
Layer 1
10
196.285679
20
278.165453
11
197.492290
21
281.393372
0
LINE
8
Layer 1
10
197.492290
20
281.393372
11
199.244605
21
284.383165
0
LINE
8
Layer 1
10
199.244605
20
284.383165
11
201.519472
21
287.095146
0
LINE
8
Layer 1
10
201.519472
20
287.095146
11
204.293740
21
289.489627
0
LINE
8
Layer 1
10
204.293740
20
289.489627
11
205.319552
21
290.323065
0
LINE
8
Layer 1
10
205.319552
20
290.323065
11
205.753359
21
290.918378
0
LINE
8
Layer 1
10
205.753359
20
290.918378
11
205.749294
21
291.126737
0
LINE
8
Layer 1
10
205.749294
20
291.126737
11
205.598467
21
291.275565
0
LINE
8
Layer 1
10
205.598467
20
291.275565
11
204.858185
21
291.394628
0
LINE
8
Layer 1
10
204.858185
20
291.394628
11
203.587633
21
291.744650
0
LINE
8
Layer 1
10
203.587633
20
291.744650
11
201.943356
21
292.686677
0
LINE
8
Layer 1
10
201.943356
20
292.686677
11
200.160174
21
294.058653
0
LINE
8
Layer 1
10
200.160174
20
294.058653
11
198.472903
21
295.698520
0
LINE
8
Layer 1
10
198.472903
20
295.698520
11
197.327959
21
297.092199
0
LINE
8
Layer 1
10
197.327959
20
297.092199
11
196.225597
21
298.698786
0
LINE
8
Layer 1
10
196.225597
20
298.698786
11
194.173421
21
302.502725
0
LINE
8
Layer 1
10
194.173421
20
302.502725
11
192.365985
21
307.014425
0
LINE
8
Layer 1
10
192.365985
20
307.014425
11
190.852898
21
312.137974
0
LINE
8
Layer 1
10
190.852898
20
312.137974
11
190.486891
21
313.183079
0
LINE
8
Layer 1
10
190.486891
20
313.183079
11
190.147342
21
313.619642
0
LINE
8
Layer 1
10
190.147342
20
313.619642
11
189.807793
21
313.183079
0
LINE
8
Layer 1
10
189.807793
20
313.183079
11
189.441786
21
312.137974
0
LINE
8
Layer 1
10
189.441786
20
312.137974
11
187.660808
21
306.214611
0
LINE
8
Layer 1
10
187.660808
20
306.214611
11
186.707688
21
303.698174
0
LINE
8
Layer 1
10
186.707688
20
303.698174
11
185.697929
21
301.448801
0
LINE
8
Layer 1
10
185.697929
20
301.448801
11
184.620372
21
299.444168
0
LINE
8
Layer 1
10
184.620372
20
299.444168
11
183.463853
21
297.661950
0
LINE
8
Layer 1
10
183.463853
20
297.661950
11
182.217210
21
296.079823
0
LINE
8
Layer 1
10
182.217210
20
296.079823
11
180.869281
21
294.675463
0
LINE
8
Layer 1
10
180.869281
20
294.675463
11
179.339657
21
293.374043
0
LINE
8
Layer 1
10
179.339657
20
293.374043
11
177.813341
21
292.333899
0
LINE
8
Layer 1
10
177.813341
20
292.333899
11
176.439161
21
291.644329
0
LINE
8
Layer 1
10
176.439161
20
291.644329
11
175.365944
21
291.394628
0
LINE
8
Layer 1
10
175.365944
20
291.394628
11
174.671412
21
291.275565
0
LINE
8
Layer 1
10
174.671412
20
291.275565
11
174.537467
21
291.126737
0
LINE
8
Layer 1
10
174.537467
20
291.126737
11
174.545735
21
290.918378
0
LINE
8
Layer 1
10
174.545735
20
290.918378
11
174.988912
21
290.323065
0
LINE
8
Layer 1
10
174.988912
20
290.323065
11
176.000944
21
289.489627
0
LINE
8
Layer 1
10
176.000944
20
289.489627
11
178.804427
21
287.085224
0
LINE
8
Layer 1
10
178.804427
20
287.085224
11
181.072128
21
284.383165
0
LINE
8
Layer 1
10
181.072128
20
284.383165
11
182.002993
21
282.926716
0
LINE
8
Layer 1
10
182.002993
20
282.926716
11
182.797433
21
281.403294
0
LINE
8
Layer 1
10
182.797433
20
281.403294
11
183.454620
21
279.815379
0
LINE
8
Layer 1
10
183.454620
20
279.815379
11
183.973727
21
278.165453
0
LINE
8
Layer 1
10
183.973727
20
278.165453
11
184.463758
21
274.691692
0
LINE
8
Layer 1
10
184.463758
20
274.691692
11
184.771887
21
269.663503
0
LINE
8
Layer 1
10
184.771887
20
269.663503
11
184.822048
21
265.138023
0
LINE
8
Layer 1
10
184.822048
20
265.138023
11
184.726619
21
263.706654
0
LINE
8
Layer 1
10
184.726619
20
263.706654
11
184.538172
21
263.172388
0
LINE
8
Layer 1
10
184.538172
20
263.172388
11
184.264769
21
263.264992
0
LINE
8
Layer 1
10
184.264769
20
263.264992
11
184.150116
21
263.489888
0
LINE
8
Layer 1
10
184.150116
20
263.489888
11
182.536157
21
265.386070
0
LINE
8
Layer 1
10
182.536157
20
265.386070
11
178.646779
21
269.557670
0
LINE
8
Layer 1
10
178.646779
20
269.557670
11
174.087124
21
274.470103
0
LINE
8
Layer 1
10
174.087124
20
274.470103
11
170.850385
21
278.165453
0
LINE
8
Layer 1
10
170.850385
20
278.165453
11
167.829655
21
282.151500
0
LINE
8
Layer 1
10
167.829655
20
282.151500
11
164.954032
21
286.419907
0
LINE
8
Layer 1
10
164.954032
20
286.419907
11
162.256176
21
290.905769
0
LINE
8
Layer 1
10
162.256176
20
290.905769
11
159.768746
21
295.544179
0
LINE
8
Layer 1
10
159.768746
20
295.544179
11
157.524403
21
300.270233
0
LINE
8
Layer 1
10
157.524403
20
300.270233
11
155.555805
21
305.019025
0
LINE
8
Layer 1
10
155.555805
20
305.019025
11
153.895613
21
309.725648
0
LINE
8
Layer 1
10
153.895613
20
309.725648
11
152.576485
21
314.325198
0
LINE
8
Layer 1
10
152.576485
20
314.325198
11
151.350581
21
320.416682
0
LINE
8
Layer 1
10
151.350581
20
320.416682
11
150.574470
21
326.703296
0
LINE
8
Layer 1
10
150.574470
20
326.703296
11
150.314296
21
332.507045
0
LINE
8
Layer 1
10
150.314296
20
332.507045
11
150.398356
21
335.015972
0
LINE
8
Layer 1
10
150.398356
20
335.015972
11
150.636206
21
337.149935
0
LINE
8
Layer 1
10
150.636206
20
337.149935
11
151.150990
21
339.691934
0
LINE
8
Layer 1
10
151.150990
20
339.691934
11
151.868862
21
342.191353
0
LINE
8
Layer 1
10
151.868862
20
342.191353
11
152.780418
21
344.637854
0
LINE
8
Layer 1
10
152.780418
20
344.637854
11
153.876251
21
347.021104
0
LINE
8
Layer 1
10
153.876251
20
347.021104
11
155.146958
21
349.330766
0
LINE
8
Layer 1
10
155.146958
20
349.330766
11
156.583134
21
351.556506
0
LINE
8
Layer 1
10
156.583134
20
351.556506
11
158.175372
21
353.687988
0
LINE
8
Layer 1
10
158.175372
20
353.687988
11
159.914267
21
355.714877
0
LINE
8
Layer 1
10
159.914267
20
355.714877
11
161.790416
21
357.626837
0
LINE
8
Layer 1
10
161.790416
20
357.626837
11
163.794412
21
359.413534
0
LINE
8
Layer 1
10
163.794412
20
359.413534
11
165.916851
21
361.064631
0
LINE
8
Layer 1
10
165.916851
20
361.064631
11
168.148326
21
362.569794
0
LINE
8
Layer 1
10
168.148326
20
362.569794
11
170.479435
21
363.918688
0
LINE
8
Layer 1
10
170.479435
20
363.918688
11
172.900770
21
365.100977
0
LINE
8
Layer 1
10
172.900770
20
365.100977
11
175.402927
21
366.106325
0
LINE
8
Layer 1
10
175.402927
20
366.106325
11
177.976501
21
366.924398
0
LINE
8
Layer 1
10
177.976501
20
366.924398
11
182.141486
21
367.878552
0
LINE
8
Layer 1
10
182.141486
20
367.878552
11
186.266784
21
368.419295
0
LINE
8
Layer 1
10
186.266784
20
368.419295
11
190.418540
21
368.556547
0
LINE
8
Layer 1
10
190.418540
20
368.556547
11
194.662900
21
368.300232
0
LINE
8
Layer 1
10
194.662900
20
368.300232
11
194.662900
21
368.300232
 0 
ENDSEC
 0 
EOF