<?xml version="1.0" standalone="no"?>
<!DOCTYPE svg PUBLIC "-//W3C//DTD SVG 20010904//EN"
 "http://www.w3.org/TR/2001/REC-SVG-20010904/DTD/svg10.dtd">
<svg version="1.0" xmlns="http://www.w3.org/2000/svg"
 width="1078.000000pt" height="1078.000000pt" viewBox="0 0 1078.000000 1078.000000"
 preserveAspectRatio="xMidYMid meet">
<metadata>
Created by potrace 1.16, written by Peter Selinger 2001-2019
</metadata>
<g transform="translate(0.000000,1078.000000) scale(0.100000,-0.100000)"
fill="#000000" stroke="none">
<path fill="#000000" stroke="none" d="M6919 10652 c-26 -26 -66 -76 -90 -111
-24 -35 -55 -79 -68 -98 -22 -30 -23 -38 -13 -65 14 -39 8 -49 -26 -42 -23 5
-34 -2 -69 -40 -23 -25 -49 -46 -57 -46 -8 0 -26 -10 -40 -22 -54 -50 -67 -58
-95 -58 -15 0 -40 -9 -54 -20 -14 -11 -40 -20 -60 -20 -65 0 -105 -90 -92
-206 10 -80 9 -86 -16 -138 -11 -24 -19 -61 -19 -93 0 -51 -1 -53 -37 -70 -50
-24 -70 -68 -80 -182 -9 -98 -4 -118 39 -149 22 -16 23 -35 2 -67 -14 -21 -14
-28 -3 -41 13 -16 64 -16 102 0 29 13 20 -21 -10 -41 -36 -23 -43 -33 -43 -63
0 -27 56 -118 80 -131 8 -4 28 -11 43 -14 36 -7 64 -37 100 -104 24 -46 36
-56 95 -84 76 -36 225 -60 277 -46 16 5 42 9 57 9 22 0 31 7 42 35 21 49 39
52 87 16 41 -29 43 -30 78 -15 20 8 42 22 49 31 17 24 15 119 -4 148 -20 31
-10 65 19 65 12 0 43 -11 69 -25 53 -28 109 -33 128 -10 13 16 0 35 -32 48
-10 3 -18 16 -18 27 0 16 7 20 38 20 36 0 38 3 70 65 17 35 32 74 32 85 0 12
19 41 43 64 120 121 128 131 143 196 17 76 6 126 -32 140 -20 8 -24 16 -24 54
0 59 -22 74 -69 45 -38 -23 -99 -25 -107 -4 -7 16 25 72 68 123 20 23 28 43
28 70 0 21 5 43 12 50 8 8 7 25 -7 68 -14 44 -16 74 -11 132 3 41 10 80 15 86
33 40 60 200 41 236 -15 28 -39 25 -51 -7 -21 -56 -53 -93 -81 -93 -15 0 -30
5 -33 10 -9 15 -47 12 -69 -5 -29 -22 -46 -18 -46 8 0 13 -9 32 -19 41 -16 14
-23 15 -41 6 -29 -16 -50 -6 -50 24 0 29 -21 39 -56 26 -30 -12 -44 -6 -44 19
0 10 -11 28 -25 41 -31 29 -32 62 -3 101 17 23 20 34 12 46 -17 28 -27 24 -75
-25z"/>
<path fill="#ffffff" stroke="none" d="M6958 10090 c4 -104 23 -123 72 -70 23
25 32 28 64 23 58 -9 50 -26 -71 -155 -24 -27 -48 -48 -53 -48 -4 0 -18 16
-30 36 -19 34 -21 46 -16 163 3 69 6 128 6 129 0 2 6 2 13 0 8 -3 13 -30 15
-78z"/>
<path fill="#ffffff" stroke="none" d="M6594 9884 c29 -27 72 -54 101 -63 42
-14 54 -24 73 -60 l22 -43 -30 -30 c-16 -16 -30 -33 -30 -37 0 -13 -100 -51
-134 -51 -18 0 -49 -9 -71 -20 l-39 -20 -27 26 c-22 21 -35 25 -66 22 -21 -3
-45 -8 -53 -11 -8 -4 -22 -2 -30 3 -13 8 -13 12 -1 32 8 13 27 48 42 78 26 50
27 57 14 77 -31 46 -8 90 41 80 18 -3 36 4 66 29 22 19 47 34 55 34 8 0 38
-21 67 -46z"/>
<path fill="#ffffff" stroke="none" d="M7093 9658 c12 -7 47 -15 78 -19 31 -3
88 -22 127 -40 67 -32 71 -36 72 -67 0 -20 -6 -35 -15 -38 -8 -4 -15 -18 -15
-33 0 -17 -10 -37 -26 -52 -15 -13 -35 -43 -46 -66 -21 -48 -36 -53 -63 -23
-10 11 -27 20 -37 20 -31 0 -82 25 -123 61 -35 31 -85 121 -85 152 0 7 16 30
35 52 19 22 40 46 45 53 13 15 25 15 53 0z"/>
<path fill="#000000" stroke="none" d="M3645 10620 c-4 -6 -1 -33 5 -60 15
-64 8 -83 -42 -106 -27 -12 -47 -31 -57 -51 -18 -37 -36 -42 -51 -13 -6 11
-20 20 -30 20 -11 0 -25 -9 -32 -20 -15 -24 -31 -25 -48 -5 -18 22 -36 19 -65
-12 -24 -26 -27 -27 -39 -10 -7 9 -24 17 -37 17 -13 0 -29 4 -35 8 -16 10 -44
79 -44 108 0 60 -47 24 -61 -47 -6 -30 -12 -105 -13 -168 -2 -104 0 -117 21
-148 29 -42 29 -46 -2 -77 -20 -20 -25 -35 -25 -75 0 -28 -6 -55 -14 -63 -7
-8 -16 -27 -19 -43 -14 -73 -22 -90 -48 -112 -15 -13 -29 -36 -31 -51 -2 -19
-10 -28 -24 -30 -26 -4 -49 -74 -33 -103 5 -10 9 -27 9 -38 0 -12 17 -38 39
-59 55 -53 91 -110 91 -144 0 -15 13 -54 30 -85 l30 -56 -20 -32 c-26 -42 -25
-49 10 -120 16 -33 30 -64 30 -70 0 -5 15 -27 33 -49 24 -28 43 -40 72 -45 36
-6 40 -9 43 -38 2 -19 12 -39 25 -48 19 -13 24 -13 44 0 33 22 43 19 43 -13 0
-78 120 -126 227 -91 40 12 45 11 72 -9 16 -11 42 -24 57 -28 16 -4 34 -11 41
-16 19 -15 137 17 221 60 40 20 98 59 128 86 54 48 55 50 48 91 -5 38 -3 44
15 50 12 3 34 4 50 0 24 -5 33 0 64 35 21 22 37 46 37 53 -1 46 -73 137 -108
137 -5 0 -16 7 -23 16 -11 14 -10 19 9 35 13 10 44 21 70 25 83 12 128 48 100
81 -8 10 -22 13 -44 8 -18 -3 -35 -1 -38 4 -9 15 4 40 25 46 16 5 19 16 19 63
0 31 -7 76 -17 100 -14 39 -15 53 -4 125 24 154 25 184 3 231 -26 53 -65 80
-116 79 -34 0 -40 3 -49 28 -11 27 -38 42 -60 33 -7 -2 -24 -27 -39 -54 -21
-38 -34 -50 -52 -50 -21 0 -24 5 -29 58 -4 32 -4 68 0 80 3 12 -4 41 -16 67
-11 25 -21 49 -21 54 0 5 -17 23 -37 40 -84 70 -119 116 -133 174 -22 88 -55
160 -94 204 -29 34 -50 41 -61 23z"/>
<path fill="#ffffff" stroke="none" d="M3646 9983 c-19 -197 -15 -190 -88
-149 -63 35 -123 146 -79 146 6 0 15 -9 21 -20 25 -47 75 -9 64 48 -7 33 2 39
60 41 l28 1 -6 -67z"/>
<path fill="#ffffff" stroke="none" d="M4126 9808 c4 -13 7 -36 5 -52 -1 -16
6 -37 16 -48 15 -16 15 -23 4 -54 -10 -28 -10 -42 -1 -65 18 -43 7 -59 -40
-59 -22 0 -51 -6 -63 -14 -21 -14 -59 -19 -122 -17 -17 1 -57 18 -90 40 l-60
40 0 67 c0 49 4 69 15 75 86 46 199 89 236 89 23 0 46 5 49 10 11 18 44 10 51
-12z"/>
<path fill="#ffffff" stroke="none" d="M3498 9630 c39 -20 39 -21 37 -75 -2
-59 -21 -96 -94 -175 -23 -24 -41 -50 -41 -57 0 -20 -21 -26 -46 -13 -20 11
-27 10 -58 -14 -19 -14 -38 -35 -41 -46 -3 -11 -12 -20 -19 -20 -24 0 -36 25
-36 72 0 60 -16 96 -52 114 -40 21 -37 56 7 95 24 21 35 40 35 58 0 48 27 62
106 55 50 -4 80 -1 109 10 52 19 48 19 93 -4z"/>
<path fill="#000000" stroke="none" d="M4891 9938 c-16 -18 -34 -41 -39 -52
-37 -82 -53 -134 -67 -221 -9 -55 -25 -123 -36 -150 -34 -91 -18 -150 52 -185
46 -24 43 -40 -8 -40 -57 0 -101 -27 -113 -69 -5 -20 -10 -41 -10 -47 0 -25
-34 -75 -70 -104 -33 -26 -38 -36 -34 -58 5 -23 1 -29 -26 -39 -28 -11 -30
-14 -20 -34 10 -19 18 -21 55 -16 51 7 73 -9 52 -38 -11 -15 -17 -16 -36 -6
-12 7 -29 11 -39 10 -9 -1 -34 1 -54 5 -33 7 -42 4 -72 -20 -26 -22 -35 -37
-35 -62 l-1 -33 -45 7 c-40 5 -48 3 -65 -16 -17 -20 -20 -38 -20 -122 0 -94 1
-101 33 -151 30 -49 58 -113 86 -198 9 -29 8 -41 -5 -68 -14 -29 -14 -34 0
-56 9 -13 16 -44 16 -67 0 -24 7 -53 15 -65 20 -28 10 -50 -26 -58 -36 -8 -42
-28 -37 -131 5 -95 18 -152 62 -259 27 -64 31 -69 62 -76 70 -14 95 -49 74
-103 -13 -35 -5 -63 20 -71 28 -9 99 28 145 74 77 80 86 35 14 -75 -49 -76
-50 -100 -1 -146 90 -86 195 -133 217 -98 10 17 79 11 124 -11 29 -13 46 -30
53 -50 8 -22 16 -29 37 -29 17 0 36 -10 49 -25 12 -14 36 -28 52 -32 30 -6 41
-27 18 -36 -7 -2 -27 -2 -44 0 -22 4 -51 -4 -97 -26 -36 -17 -77 -31 -91 -31
-56 0 -316 -139 -330 -177 -4 -9 0 -26 9 -39 22 -35 19 -85 -9 -116 -23 -28
-69 -38 -81 -18 -3 6 -14 10 -24 10 -10 0 -28 11 -41 25 -13 14 -31 25 -39 25
-20 0 -79 -39 -148 -97 l-53 -44 16 -31 c11 -22 14 -43 9 -79 -6 -43 -4 -51
17 -71 14 -13 33 -42 44 -65 10 -23 30 -48 44 -56 83 -50 95 -95 37 -134 -38
-26 -90 -29 -195 -11 -112 19 -212 -20 -212 -82 0 -44 37 -64 102 -57 57 7 78
-3 78 -38 0 -38 -37 -75 -75 -75 -21 0 -44 -9 -60 -23 l-26 -22 0 -195 0 -195
-65 -130 c-89 -179 -134 -309 -134 -382 1 -94 53 -186 138 -244 43 -29 48 -30
83 -19 33 11 42 11 64 -4 29 -19 30 -27 9 -68 l-16 -31 46 -45 c44 -44 46 -45
72 -31 15 7 38 32 52 54 13 22 43 59 65 83 39 40 44 42 99 42 49 0 60 -3 73
-24 14 -21 14 -27 -10 -77 -14 -30 -25 -70 -25 -90 0 -19 -7 -44 -15 -55 -8
-10 -15 -25 -15 -33 0 -8 -10 -25 -22 -38 -21 -22 -21 -24 -5 -74 10 -28 17
-72 17 -98 1 -88 15 -120 79 -185 78 -78 85 -88 106 -161 10 -33 22 -70 27
-81 6 -12 10 -57 10 -100 1 -44 5 -88 11 -99 6 -11 12 -60 13 -110 3 -134 45
-247 133 -353 35 -43 48 -53 70 -50 29 3 29 4 6 97 -12 51 -13 76 -5 119 5 31
10 70 10 87 0 22 10 40 34 64 32 31 35 32 93 26 72 -9 103 4 103 41 0 17 8 27
25 34 31 12 45 46 45 109 0 51 18 78 45 67 17 -6 20 -47 4 -63 -8 -8 -8 -21 0
-45 5 -18 15 -54 22 -80 14 -58 29 -72 68 -63 33 7 61 36 81 85 22 54 50 34
65 -45 8 -44 28 -64 67 -65 49 0 77 18 94 59 16 41 39 56 68 45 20 -8 21 -28
1 -48 -8 -8 -15 -19 -15 -24 0 -19 37 -41 90 -54 51 -12 56 -16 68 -53 10 -28
13 -76 9 -162 -2 -67 -1 -127 3 -134 14 -22 57 0 104 55 25 30 46 60 46 68 0
7 11 37 25 67 30 63 53 166 62 271 3 46 14 91 27 115 16 31 21 59 21 120 0 75
-2 83 -27 108 -56 56 -43 106 28 107 48 0 69 26 87 106 24 104 60 162 113 185
47 19 53 33 29 65 -23 30 -18 42 23 54 49 16 58 26 41 46 -13 16 -49 16 -105
-1 -30 -9 -56 20 -52 59 3 28 6 31 33 29 92 -7 172 -20 190 -30 22 -12 55 -1
55 18 0 6 14 22 31 36 27 23 30 30 24 66 -10 58 29 77 75 37 13 -11 27 -20 31
-20 16 0 49 44 49 65 0 11 5 26 11 32 6 6 14 52 17 102 5 99 -10 160 -52 211
-12 14 -29 46 -40 70 -10 25 -24 59 -31 75 -38 90 -44 165 -18 221 l18 36 -27
22 c-25 19 -27 28 -30 101 -3 74 -5 80 -25 83 -45 7 -22 44 33 56 18 4 39 15
47 24 32 37 28 201 -7 340 -17 65 -81 230 -96 246 -5 4 -30 12 -56 17 -49 9
-104 50 -104 77 0 8 8 36 17 62 16 45 16 49 0 74 -12 18 -26 26 -47 26 -17 0
-30 -3 -30 -8 0 -4 -14 -13 -31 -21 -16 -7 -64 -44 -104 -82 -41 -38 -79 -69
-85 -69 -32 0 7 104 84 220 20 30 36 62 36 70 0 43 -119 152 -222 204 l-57 29
-56 -18 c-106 -33 -224 7 -249 86 -10 31 -15 34 -56 39 -39 4 -47 9 -62 40
-23 48 -22 60 5 60 30 0 40 10 26 26 -15 19 -4 44 20 44 23 0 165 71 193 97
15 13 17 25 12 65 -11 81 34 110 104 68 44 -27 66 -25 115 9 72 49 76 58 68
128 -5 43 -14 70 -29 86 -12 13 -22 27 -22 33 0 5 -23 30 -52 55 l-52 46 28
28 c27 27 28 27 125 21 114 -9 177 8 187 50 9 36 -11 53 -68 56 -62 4 -82 25
-54 56 9 11 33 23 51 26 55 11 65 35 65 159 0 60 -4 117 -10 127 -9 17 -1 45
32 105 34 62 58 115 58 129 0 9 6 27 14 39 8 12 23 52 32 90 17 64 17 70 1
130 -10 34 -20 71 -22 82 -5 23 -62 75 -82 75 -7 0 -39 24 -71 53 -31 29 -72
63 -90 75 -30 22 -32 22 -38 5 -19 -54 -49 -105 -78 -131 -27 -23 -39 -28 -70
-24 -21 2 -40 10 -43 18 -8 21 31 176 54 215 14 23 15 33 5 54 -7 14 -12 45
-12 69 0 64 -17 101 -64 139 -25 21 -50 54 -62 83 -42 97 -44 108 -64 334 -11
132 -87 299 -136 300 -30 0 -33 -7 -20 -45 16 -47 2 -181 -23 -215 -16 -21
-26 -25 -72 -25 -51 0 -57 -3 -92 -41 -20 -23 -37 -49 -37 -58 0 -22 -30 -33
-41 -15 -5 8 -9 28 -9 44 0 17 -9 41 -20 55 -18 24 -20 25 -47 8 -15 -9 -35
-29 -43 -44 -21 -38 -32 -35 -55 14 -18 39 -22 42 -60 42 -35 0 -43 -5 -63
-35 -28 -44 -57 -48 -49 -6 7 35 -17 61 -56 61 -32 0 -64 29 -73 65 -3 14 -2
60 4 103 9 74 4 102 -19 102 -4 0 -21 -14 -38 -32z"/>
<path fill="#ffffff" stroke="none" d="M5176 9168 c11 -13 25 -34 31 -48 6
-14 21 -50 34 -80 32 -76 50 -95 78 -81 28 16 54 68 48 99 -10 52 13 66 58 36
23 -15 26 -15 55 14 16 17 32 26 35 22 7 -11 -5 -91 -15 -105 -10 -13 -28 -68
-46 -134 -13 -49 -33 -101 -53 -141 -16 -31 -47 -22 -104 32 -57 55 -97 133
-97 190 0 15 -11 52 -25 82 -14 30 -25 61 -25 70 0 8 -4 18 -10 21 -15 9 -12
45 3 45 8 0 22 -10 33 -22z"/>
<path fill="#ffffff" stroke="none" d="M4771 8615 c24 -8 53 -19 64 -24 47
-22 114 -27 192 -16 l51 8 61 -54 c34 -29 61 -59 61 -65 0 -7 -12 -21 -26 -31
-23 -17 -25 -22 -15 -42 10 -18 9 -27 -8 -54 -11 -18 -30 -41 -43 -52 -68 -59
-117 -95 -156 -114 -23 -12 -56 -41 -73 -64 -42 -58 -56 -64 -64 -27 -6 29 -8
30 -68 30 -61 0 -97 -17 -97 -46 0 -18 -58 -57 -74 -51 -23 9 -29 78 -12 128
16 46 21 146 8 165 -4 6 -22 19 -39 28 -29 14 -33 22 -33 55 0 48 26 73 83 80
38 5 42 9 45 36 5 59 13 75 49 100 44 30 39 29 94 10z"/>
<path fill="#ffffff" stroke="none" d="M6020 8607 c30 0 64 2 75 4 17 3 20 -1
17 -27 -2 -19 3 -36 13 -44 22 -18 19 -35 -10 -54 -31 -20 -32 -39 -3 -58 20
-13 21 -19 12 -39 -32 -70 -46 -130 -39 -178 6 -46 5 -51 -19 -66 -24 -16 -28
-16 -61 4 -44 25 -57 26 -113 4 -36 -13 -50 -14 -76 -5 -18 7 -46 12 -62 12
-87 0 -272 189 -228 233 11 11 43 110 44 134 0 39 23 50 104 51 69 0 116 10
171 33 11 5 43 6 70 3 28 -4 75 -7 105 -7z"/>
<path fill="#ffffff" stroke="none" d="M6486 5465 c17 -51 18 -80 0 -113 -26
-51 -36 -99 -36 -170 0 -78 13 -102 65 -122 15 -6 25 -18 25 -29 0 -10 7 -24
15 -31 24 -20 14 -50 -28 -84 -31 -25 -46 -30 -82 -28 -53 2 -64 -12 -69 -87
-4 -60 -7 -65 -58 -102 -52 -37 -80 -37 -170 5 -104 48 -152 56 -274 45 -79
-7 -109 -6 -124 3 -11 7 -20 17 -20 22 0 15 -52 66 -66 66 -17 0 -54 49 -54
71 0 13 7 19 23 19 13 0 32 9 43 21 18 20 18 21 -6 39 -23 17 -23 20 -10 45
24 45 88 113 162 171 64 51 153 104 176 104 6 0 20 16 32 34 11 19 34 49 50
67 17 17 30 35 30 40 0 5 7 9 15 9 10 0 15 -11 15 -35 0 -49 28 -64 106 -56
67 7 114 32 114 60 0 21 22 43 65 65 39 21 44 18 61 -29z"/>
<path fill="#ffffff" stroke="none" d="M4550 5315 c29 -31 71 -33 136 -5 51
22 40 23 195 -11 87 -19 133 -52 244 -174 l75 -83 -26 -59 c-41 -93 -55 -141
-48 -167 4 -19 0 -31 -19 -50 -23 -22 -28 -24 -66 -14 -41 11 -96 4 -166 -20
-107 -37 -247 -46 -298 -19 -22 11 -36 13 -60 5 -61 -19 -112 -27 -121 -17 -6
5 -5 18 3 33 18 33 6 66 -25 66 -39 0 -31 36 16 65 48 31 52 58 10 75 -34 14
-35 18 -15 57 8 15 27 59 41 97 22 58 26 80 22 141 -5 69 -4 73 21 88 36 23
54 21 81 -8z"/>
<path fill="#ffffff" stroke="none" d="M5490 4471 c92 -94 91 -93 121 -236 7
-33 22 -82 35 -110 12 -27 30 -72 39 -100 9 -27 27 -69 40 -93 20 -36 22 -44
9 -49 -18 -7 -88 41 -113 76 -10 14 -24 44 -30 66 -11 38 -24 68 -68 160 -28
58 -58 55 -101 -9 -29 -44 -32 -55 -26 -93 5 -34 3 -48 -11 -63 -23 -26 -26
-25 -63 10 -38 36 -53 32 -93 -26 -16 -24 -34 -44 -39 -44 -23 0 -3 144 31
217 10 24 19 49 19 56 0 7 4 17 8 23 5 5 14 34 21 64 26 115 88 240 118 240 8
0 55 -40 103 -89z"/>
<path fill="#000000" stroke="none" d="M8525 9750 c-3 -6 -21 -18 -39 -28 -34
-17 -64 -40 -167 -124 -41 -34 -59 -56 -61 -75 -3 -25 -8 -28 -42 -31 -22 -2
-55 -14 -75 -28 -20 -13 -47 -24 -61 -24 -15 0 -35 -7 -46 -15 -10 -8 -25 -15
-33 -15 -8 0 -19 -7 -26 -16 -10 -14 -16 -15 -47 -4 -29 11 -42 11 -68 0 -23
-10 -34 -10 -43 -1 -21 21 -56 11 -92 -24 -44 -44 -65 -94 -65 -153 0 -43 -27
-104 -57 -127 -7 -5 -25 -35 -40 -65 -24 -48 -32 -55 -60 -58 -38 -4 -77 -46
-116 -125 -48 -97 -53 -124 -34 -156 22 -38 22 -48 -8 -83 -34 -41 -20 -68 35
-68 33 0 40 -3 40 -20 0 -11 -6 -20 -14 -20 -27 0 -66 -41 -66 -70 0 -16 4
-31 9 -34 4 -3 11 -23 15 -45 6 -37 43 -81 68 -81 20 0 37 -30 47 -83 14 -76
32 -107 88 -156 49 -43 185 -114 238 -126 90 -20 101 -18 124 14 28 39 66 42
75 7 10 -41 33 -56 87 -56 46 0 50 2 75 41 20 33 25 52 24 97 -1 32 -1 65 -1
75 1 24 43 22 67 -4 34 -38 104 -80 127 -77 31 4 33 36 3 67 -18 18 -22 31
-16 41 8 12 14 12 45 1 36 -13 38 -12 72 20 19 19 46 53 61 77 22 34 46 53
122 93 140 75 170 109 170 194 0 32 -6 51 -21 66 -18 18 -20 26 -11 61 9 34 8
42 -8 58 -18 18 -21 18 -59 3 -37 -14 -42 -14 -66 1 -14 9 -25 23 -25 30 0 15
82 86 99 86 6 0 27 26 47 58 32 48 37 66 38 117 2 77 27 147 74 210 44 59 82
122 82 137 0 5 7 25 16 44 13 27 14 37 4 49 -19 23 -27 19 -81 -35 -54 -54
-74 -60 -105 -32 -29 27 -46 31 -75 16 -32 -16 -54 -4 -44 25 11 36 -3 60 -38
63 -28 3 -32 7 -32 32 -1 34 -30 58 -62 50 -21 -6 -23 -3 -23 27 0 18 -7 40
-16 50 -22 24 -11 52 38 99 22 21 37 43 34 49 -9 14 -73 14 -81 1z"/>
<path fill="#ffffff" stroke="none" d="M7963 9103 c30 -45 47 -63 109 -115 17
-15 29 -37 33 -63 6 -38 4 -42 -37 -73 l-42 -32 -128 1 c-105 0 -128 3 -128
15 0 8 -12 26 -27 40 -23 21 -33 24 -69 18 -60 -9 -67 10 -18 55 58 53 77 87
69 122 -4 18 -2 36 5 44 15 18 61 20 77 4 9 -9 20 -6 45 9 53 33 74 28 111
-25z"/>
<path fill="#ffffff" stroke="none" d="M8363 9110 c7 -26 35 -37 56 -22 46 33
57 35 84 9 15 -13 27 -27 27 -30 0 -12 -185 -128 -199 -125 -26 5 -38 112 -17
154 18 38 41 44 49 14z"/>
<path fill="#ffffff" stroke="none" d="M8393 8740 c14 -12 47 -30 72 -41 25
-11 68 -40 95 -64 27 -24 56 -48 65 -53 16 -8 16 -11 1 -39 -8 -17 -24 -33
-36 -36 -12 -3 -20 -13 -20 -25 0 -13 -17 -31 -47 -51 -27 -16 -54 -39 -61
-51 -17 -29 -33 -25 -65 15 -15 19 -34 35 -41 35 -48 0 -111 98 -120 186 l-7
62 58 41 c32 23 63 41 69 41 6 0 23 -9 37 -20z"/>
<path fill="#000000" stroke="none" d="M1897 9553 c-13 -12 -7 -28 22 -58 60
-65 65 -97 20 -139 -26 -25 -30 -34 -24 -63 l6 -33 -43 2 c-37 3 -44 0 -56
-24 -9 -19 -21 -28 -37 -28 -31 0 -55 -25 -55 -57 0 -23 -2 -25 -35 -19 -19 4
-44 2 -55 -4 -17 -9 -28 -7 -55 10 -19 12 -35 27 -35 34 0 18 -37 49 -49 41
-20 -12 -11 -79 18 -135 15 -30 44 -85 63 -122 32 -63 73 -108 96 -108 19 0
24 -21 12 -49 -9 -24 -8 -34 8 -62 17 -31 36 -150 33 -209 -6 -108 -9 -132
-19 -142 -25 -25 -12 -59 42 -114 30 -30 63 -54 73 -54 32 0 122 -50 143 -80
11 -15 42 -45 70 -66 44 -34 50 -42 45 -66 -4 -15 0 -38 7 -52 30 -57 217
-171 241 -147 21 21 67 13 79 -14 16 -36 65 -35 78 1 6 14 8 29 6 33 -9 13 12
34 28 28 10 -4 16 -18 16 -41 0 -61 56 -80 155 -54 25 7 45 15 45 19 0 3 14
21 31 39 29 30 35 32 79 27 76 -9 126 8 182 61 82 77 178 233 178 290 0 13
-10 36 -22 53 -25 34 -17 62 19 67 42 6 69 57 64 119 -3 37 -75 77 -156 85
-50 5 -45 38 15 88 58 49 74 73 65 100 -8 24 -50 27 -59 5 -7 -19 -35 -20 -42
-1 -3 8 1 27 10 43 14 27 13 31 -12 64 -14 19 -44 54 -67 79 -31 33 -48 67
-67 126 -15 44 -39 102 -55 128 -44 76 -127 108 -182 70 -21 -15 -25 -15 -57
2 -49 27 -68 12 -72 -57 -6 -103 -44 -108 -93 -11 -22 45 -52 84 -87 115 -46
41 -58 47 -96 47 -59 0 -115 31 -197 107 -98 92 -199 150 -222 126z"/>
<path fill="#ffffff" stroke="none" d="M2214 8939 c21 -48 36 -98 34 -110 -3
-23 -7 -24 -63 -21 -45 2 -69 9 -98 29 -47 33 -47 59 1 55 41 -4 51 17 29 63
-16 33 -15 34 11 64 33 36 36 34 86 -80z"/>
<path fill="#ffffff" stroke="none" d="M2700 9040 c10 -5 20 -21 24 -34 3 -14
15 -27 26 -31 18 -6 50 -56 50 -80 0 -6 11 -22 25 -35 30 -28 30 -63 0 -69
-11 -2 -43 -25 -72 -52 -75 -71 -106 -83 -187 -74 l-67 7 -29 61 c-17 33 -30
65 -30 72 0 12 72 95 135 156 22 22 51 50 65 64 28 28 34 29 60 15z"/>
<path fill="#ffffff" stroke="none" d="M2296 8555 c17 -48 18 -133 3 -172 -6
-15 -14 -50 -18 -78 -5 -45 -9 -50 -33 -53 -38 -4 -68 -46 -68 -93 0 -31 -4
-39 -18 -39 -10 0 -25 12 -32 28 -27 54 -82 102 -116 102 -47 0 -61 23 -41 66
19 39 22 70 7 79 -5 3 -10 19 -10 35 0 33 40 70 75 70 23 0 86 42 119 79 16
18 29 21 69 19 47 -3 49 -4 63 -43z"/>
<path fill="#000000" stroke="none" d="M9935 8213 c-16 -2 -64 -13 -105 -23
-41 -10 -92 -22 -113 -25 -24 -4 -50 -18 -73 -42 -32 -32 -39 -35 -56 -24 -11
7 -47 12 -81 11 -34 -1 -88 1 -121 4 -36 4 -63 2 -71 -4 -10 -9 -21 -3 -46 25
-25 27 -39 35 -55 31 -14 -4 -28 2 -44 19 -26 28 -31 29 -80 15 -44 -12 -77
-41 -124 -109 -39 -55 -84 -100 -100 -101 -12 0 -82 -46 -114 -74 -19 -17 -25
-18 -32 -7 -25 41 -113 -3 -207 -102 -48 -50 -53 -60 -53 -101 0 -43 -2 -47
-35 -60 -19 -8 -38 -22 -41 -31 -8 -19 12 -44 44 -56 38 -15 24 -43 -22 -43
-55 -1 -76 -32 -77 -114 -1 -52 3 -68 25 -100 25 -37 34 -86 17 -96 -4 -3 -11
-31 -14 -63 -5 -50 -2 -66 21 -113 32 -66 143 -186 214 -231 50 -32 51 -33 80
-16 16 9 36 17 43 17 18 0 35 -31 35 -64 0 -31 51 -69 93 -69 37 0 102 66 112
116 16 73 48 68 88 -16 53 -107 111 -129 105 -40 -3 43 -1 48 17 45 11 -2 24
-10 28 -18 13 -24 48 -16 142 31 81 40 97 45 161 45 87 0 192 31 225 66 20 22
24 36 24 91 0 50 4 67 18 77 26 20 22 61 -8 74 -14 7 -36 12 -49 12 -25 0 -56
28 -56 51 0 15 53 34 119 43 66 9 161 93 161 144 1 30 146 160 196 176 21 6
124 104 124 117 0 3 -8 13 -18 22 -17 15 -22 15 -71 -3 l-52 -20 -44 45 c-30
30 -53 45 -70 45 -28 0 -33 21 -10 40 27 22 13 47 -42 75 -2 1 3 15 9 32 14
36 -1 63 -34 63 -23 0 -35 27 -19 43 6 6 11 25 11 42 0 35 16 52 73 78 21 9
37 24 37 33 0 18 -28 44 -45 42 -5 0 -23 -3 -40 -5z"/>
<path fill="#ffffff" stroke="none" d="M9043 7946 c23 -17 44 -24 73 -23 57 2
74 -15 74 -72 0 -33 9 -65 30 -106 31 -61 37 -97 20 -139 -7 -19 -17 -26 -37
-26 -16 0 -34 -4 -41 -9 -16 -10 -77 10 -141 46 -25 14 -59 29 -76 32 -26 6
-30 12 -33 43 -3 40 -31 70 -77 85 -45 14 -44 40 2 59 93 37 113 48 119 68 9
31 33 66 45 66 6 0 25 -11 42 -24z"/>
<path fill="#ffffff" stroke="none" d="M9563 7724 c3 -4 2 -15 -4 -26 -18 -34
46 -81 66 -48 13 20 41 8 57 -24 19 -38 15 -46 -19 -46 -14 0 -63 -7 -109 -17
-73 -14 -87 -14 -99 -2 -12 12 -12 20 1 59 21 63 85 125 107 104z"/>
<path fill="#ffffff" stroke="none" d="M9404 7374 c9 -3 16 -12 16 -18 0 -7
24 -39 53 -72 30 -32 57 -71 60 -85 4 -14 17 -41 30 -61 l24 -35 -19 -27 c-14
-18 -26 -25 -39 -21 -11 4 -25 -1 -36 -14 -11 -14 -30 -21 -52 -21 -18 0 -53
-10 -77 -21 -53 -27 -74 -20 -74 23 0 22 -10 45 -30 68 -16 19 -30 45 -30 58
0 13 -5 32 -10 43 -11 19 -2 68 23 131 11 27 45 41 139 57 3 0 13 -2 22 -5z"/>
<path fill="#000000" stroke="none" d="M1645 8010 c-11 -4 -31 -19 -44 -34
-21 -22 -29 -24 -66 -19 -55 7 -61 -4 -39 -74 13 -40 15 -60 7 -72 -18 -28
-38 -23 -89 22 -27 24 -75 56 -107 71 -57 27 -61 28 -118 16 -70 -15 -150 -3
-238 37 -31 13 -71 31 -89 39 -41 18 -126 18 -140 1 -14 -16 -5 -30 33 -50 50
-28 75 -54 75 -81 0 -13 -4 -28 -10 -31 -13 -8 -13 -51 1 -76 16 -31 4 -53
-21 -39 -30 16 -53 -5 -47 -43 3 -25 -1 -31 -29 -45 -39 -18 -48 -36 -34 -63
14 -26 6 -37 -23 -32 -14 3 -29 -3 -41 -16 -26 -29 -66 -26 -111 8 -44 33 -65
31 -65 -8 0 -20 21 -47 92 -115 127 -122 162 -146 210 -146 39 0 39 -1 33 -30
-6 -25 0 -36 39 -78 25 -27 46 -58 46 -69 0 -11 16 -37 36 -57 32 -33 35 -41
26 -61 -11 -24 -6 -65 8 -65 15 0 20 -31 8 -50 -16 -25 12 -66 68 -97 32 -19
54 -22 127 -22 82 0 91 -2 134 -30 26 -17 54 -31 63 -31 35 0 90 -30 90 -49 0
-24 53 -69 88 -76 15 -3 41 -10 57 -15 61 -18 141 -23 156 -8 42 40 47 41 78
19 36 -26 43 -26 66 -1 15 17 16 24 7 46 -16 34 -15 44 6 44 9 0 27 -16 40
-35 27 -43 50 -44 122 -7 45 22 59 36 82 81 30 60 41 70 78 72 45 1 111 59
146 128 18 34 34 75 37 89 3 15 10 45 16 67 6 22 11 73 11 113 l0 72 -35 17
c-44 21 -46 49 -5 88 32 31 37 56 16 93 -31 57 -115 79 -177 46 -24 -12 -34
-13 -45 -3 -21 17 -18 29 21 94 42 69 45 118 8 123 -17 3 -26 -3 -33 -22 -6
-16 -17 -26 -30 -26 -16 0 -20 7 -20 38 -1 54 -8 61 -130 124 -32 16 -66 44
-80 65 -45 65 -124 146 -157 159 -36 15 -78 17 -108 4z"/>
<path fill="#ffffff" stroke="none" d="M1679 7769 c7 -11 23 -19 35 -19 11 -1
50 -28 86 -60 l64 -60 -26 -27 c-14 -16 -29 -42 -33 -60 -9 -43 -94 -129 -137
-137 -100 -21 -94 -22 -142 30 -49 53 -54 68 -32 99 7 11 19 45 27 75 12 50
43 110 61 118 4 2 12 19 18 38 10 30 15 33 38 28 15 -4 33 -15 41 -25z"/>
<path fill="#ffffff" stroke="none" d="M1231 7518 c42 -45 75 -87 72 -94 -8
-20 -104 -44 -148 -36 -45 8 -57 32 -23 47 34 15 34 47 -2 78 -34 30 -37 42
-15 51 8 3 15 12 15 21 0 30 25 13 101 -67z"/>
<path fill="#ffffff" stroke="none" d="M1432 7208 c42 -38 68 -106 68 -175 0
-26 5 -61 12 -79 11 -31 10 -34 -21 -63 -29 -27 -33 -35 -26 -64 14 -60 12
-72 -14 -75 -14 -2 -33 6 -50 22 -37 35 -91 57 -114 44 -10 -5 -30 -8 -45 -6
-25 3 -27 7 -32 58 -4 39 -11 62 -27 78 -35 34 -29 60 25 111 52 49 82 92 82
114 0 22 51 55 101 66 3 0 22 -14 41 -31z"/>
<path fill="#000000" stroke="none" d="M9820 6725 c-90 -50 -136 -68 -170 -68
-19 0 -66 -4 -103 -9 -64 -9 -70 -9 -88 11 -25 27 -81 28 -169 2 -96 -28 -113
-38 -142 -86 -23 -37 -31 -43 -58 -42 -45 3 -60 -23 -37 -62 9 -16 17 -34 17
-40 0 -16 -36 -13 -50 4 -21 25 -44 17 -86 -27 -53 -56 -62 -81 -56 -149 4
-53 2 -59 -28 -90 -18 -19 -41 -52 -52 -73 -40 -79 -6 -273 69 -393 32 -52 40
-57 76 -53 36 3 49 -20 42 -72 -6 -41 -3 -54 17 -83 34 -51 102 -43 175 20 61
52 73 48 73 -28 0 -35 4 -67 9 -72 5 -6 11 -21 13 -34 5 -35 35 -51 53 -28 7
10 11 26 9 35 -6 23 9 44 27 37 8 -3 23 -19 33 -35 24 -41 64 -48 163 -25 22
5 48 1 90 -15 133 -52 220 -80 245 -80 34 0 101 75 108 122 4 24 12 33 40 42
50 16 50 41 1 83 -31 26 -41 42 -41 64 0 27 2 29 41 29 23 0 56 -7 75 -16 21
-10 44 -14 62 -10 15 4 46 11 70 15 29 5 55 20 80 44 42 41 122 71 222 82 127
13 230 56 230 96 0 17 -7 19 -69 19 -91 0 -101 4 -101 47 0 26 -7 41 -30 61
-37 32 -37 45 -5 66 28 19 32 38 10 56 -21 18 -19 39 7 60 l22 18 -19 35 c-18
34 -18 37 -2 55 9 10 17 26 17 35 0 8 12 25 28 37 22 18 35 21 69 16 51 -7 73
0 73 23 0 21 -85 60 -154 71 -28 5 -82 15 -120 24 -71 16 -105 13 -143 -11
-19 -13 -22 -12 -28 6 -9 28 -57 61 -90 61 -15 0 -35 9 -44 19 -9 11 -42 31
-73 45 -40 18 -57 32 -62 50 -3 14 -19 33 -35 42 -17 10 -32 28 -36 41 -6 27
-57 53 -102 53 -15 0 -48 -12 -73 -25z"/>
<path fill="#ffffff" stroke="none" d="M9750 6578 c6 -7 20 -28 30 -45 11 -18
28 -33 38 -33 10 0 29 -10 41 -21 20 -19 22 -28 17 -63 -4 -22 -11 -45 -17
-50 -5 -6 -9 -47 -9 -91 0 -77 -2 -83 -29 -109 -28 -26 -31 -27 -68 -16 -68
22 -83 33 -123 86 -22 29 -40 56 -40 60 0 4 -12 17 -26 29 -24 21 -25 25 -15
57 14 43 7 66 -32 99 -27 23 -29 29 -18 43 15 18 56 22 66 6 13 -22 125 -3
125 21 0 10 29 39 40 39 5 0 14 -6 20 -12z"/>
<path fill="#ffffff" stroke="none" d="M10180 6131 c0 -5 -13 -19 -30 -31 -16
-12 -30 -28 -30 -35 0 -19 46 -49 64 -42 8 3 19 0 24 -6 11 -13 5 -64 -8 -72
-13 -8 -169 32 -196 50 -33 21 -30 36 15 83 27 28 53 44 83 50 58 13 78 14 78
3z"/>
<path fill="#ffffff" stroke="none" d="M9781 5892 c77 -24 89 -36 89 -89 0
-24 7 -66 16 -93 13 -39 14 -56 5 -80 -5 -17 -8 -44 -5 -60 5 -24 2 -31 -24
-44 -16 -8 -33 -12 -37 -8 -4 4 -28 8 -53 9 -82 3 -172 15 -178 24 -3 5 0 25
8 44 10 28 10 40 0 55 -30 49 1 146 71 218 22 23 44 42 47 42 3 0 30 -8 61
-18z"/>
<path fill="#000000" stroke="none" d="M909 6477 c-21 -14 -36 -34 -40 -53 -9
-45 -17 -54 -47 -54 -17 0 -32 -8 -40 -21 -14 -23 -12 -27 41 -80 30 -30 35
-60 12 -79 -11 -9 -26 -7 -73 9 -39 14 -83 21 -133 21 -67 0 -78 -3 -109 -28
-55 -45 -114 -63 -243 -73 -115 -9 -187 -28 -217 -55 -25 -24 10 -41 86 -43
48 -1 68 -22 66 -69 -2 -33 2 -44 28 -65 34 -29 39 -47 12 -47 -40 0 -54 -40
-25 -73 17 -18 17 -20 -10 -42 -29 -26 -36 -62 -12 -71 22 -9 18 -41 -5 -47
-11 -3 -24 -16 -29 -29 -15 -41 -35 -50 -93 -43 -32 3 -59 1 -68 -5 -13 -9
-10 -15 17 -38 37 -31 136 -72 176 -72 16 0 42 -7 60 -17 51 -26 91 -32 118
-17 35 19 48 17 61 -11 6 -13 31 -33 57 -45 25 -12 55 -31 66 -41 41 -39 80
-64 97 -61 14 3 18 -3 18 -26 0 -29 26 -62 48 -62 7 0 12 -12 12 -26 0 -27 9
-39 50 -67 39 -27 88 -21 178 24 70 35 90 40 130 37 26 -3 73 -1 105 4 57 8
59 8 87 -22 39 -42 90 -40 249 9 44 13 56 22 67 48 16 36 27 42 69 36 21 -3
35 0 45 12 12 15 12 21 -3 47 -25 44 -22 51 18 44 48 -9 114 21 150 69 27 34
28 39 16 71 -12 33 -11 38 13 67 15 18 44 55 66 84 l40 52 0 95 c0 107 -11
166 -46 243 -13 28 -24 56 -24 62 0 14 -34 31 -63 31 -14 0 -31 7 -38 16 -11
14 -10 21 4 46 23 41 21 59 -10 96 -43 49 -92 53 -154 10 -27 -18 -49 -36 -49
-40 0 -5 -11 -8 -25 -8 -20 0 -25 5 -26 28 -1 15 -1 31 0 36 8 45 1 120 -13
134 -22 22 -47 6 -58 -36 -11 -41 -37 -42 -45 -2 -8 42 -30 51 -126 52 -78 2
-88 5 -189 55 -127 63 -189 70 -249 30z"/>
<path fill="#ffffff" stroke="none" d="M1137 6242 c12 -7 37 -12 57 -12 19 0
42 -7 51 -16 14 -14 14 -18 1 -33 -10 -11 -14 -39 -13 -91 0 -88 -13 -119 -75
-179 -49 -47 -67 -49 -148 -21 -53 18 -55 20 -58 57 -6 79 -5 291 2 301 9 15
153 10 183 -6z"/>
<path fill="#ffffff" stroke="none" d="M660 5860 c22 -11 46 -20 54 -20 25 0
105 -42 111 -58 13 -34 -84 -102 -144 -102 -35 0 -39 14 -14 42 22 25 8 49
-38 65 -29 9 -34 15 -31 40 3 34 9 53 17 53 3 0 23 -9 45 -20z"/>
<path fill="#ffffff" stroke="none" d="M1030 5625 c7 -8 22 -15 34 -15 28 0
75 -50 112 -118 15 -29 36 -58 46 -63 22 -12 23 -32 3 -49 -23 -19 -18 -59 11
-97 14 -19 23 -41 20 -48 -6 -17 -42 -20 -51 -5 -3 6 -32 10 -63 10 -47 0 -60
-4 -84 -26 -25 -25 -29 -26 -49 -13 -12 8 -27 30 -33 49 -7 22 -19 36 -31 38
-55 10 -68 57 -35 122 14 27 20 59 20 102 0 57 3 65 33 95 36 36 49 40 67 18z"/>
<path fill="#000000" stroke="none" d="M9230 5243 c-8 -3 -25 -15 -37 -26 -21
-18 -26 -19 -62 -7 -55 18 -73 9 -71 -37 3 -68 1 -70 -36 -29 -30 33 -39 37
-66 32 -56 -11 -126 -63 -139 -104 -14 -44 -46 -82 -69 -82 -10 0 -28 -8 -41
-17 -13 -10 -33 -23 -44 -28 -35 -19 -91 -146 -104 -238 -20 -145 -10 -206 38
-230 45 -22 46 -40 8 -78 l-35 -35 14 -45 c8 -25 24 -51 36 -58 24 -15 137
-16 151 -2 6 6 21 11 34 11 32 0 31 -44 -2 -101 -47 -83 -22 -170 31 -104 28
35 52 28 56 -17 3 -37 51 -76 131 -105 32 -12 58 -30 75 -54 32 -43 136 -135
176 -156 46 -24 104 -11 144 31 33 37 51 43 68 26 8 -8 18 -5 35 9 23 19 23
19 6 55 -21 45 -22 89 -2 106 11 9 22 5 56 -22 24 -18 50 -40 60 -49 25 -25
127 -52 163 -44 77 17 171 17 231 -1 33 -10 70 -24 81 -31 15 -10 49 -13 110
-11 109 4 115 17 29 63 -49 25 -61 36 -63 59 -2 16 1 33 7 39 16 16 14 44 -5
72 -19 29 -11 45 20 45 33 0 47 21 40 59 -6 27 -4 31 15 31 29 0 56 43 42 69
-15 27 -14 31 9 31 11 0 34 14 52 30 17 17 35 30 40 30 4 0 31 -12 59 -26 53
-28 77 -23 65 12 -8 26 -81 100 -136 137 -25 17 -60 44 -79 60 -30 26 -40 29
-83 25 l-48 -5 0 40 c0 33 -6 45 -40 77 -22 21 -40 45 -40 55 0 15 -27 55 -64
95 -9 9 -12 26 -9 43 4 20 -1 37 -16 58 -17 23 -19 33 -11 48 13 26 13 26 -12
54 -44 47 -79 57 -198 57 -97 0 -115 3 -137 20 -14 11 -38 20 -54 20 -15 0
-31 5 -34 10 -3 6 -17 10 -29 10 -18 0 -25 7 -29 30 -7 33 -57 70 -95 70 -13
0 -31 4 -41 9 -22 12 -131 22 -151 14z"/>
<path fill="#ffffff" stroke="none" d="M9536 5001 c21 -21 86 -51 109 -51 14
0 34 5 44 12 30 18 51 -5 51 -56 0 -34 6 -48 30 -71 17 -16 30 -34 30 -42 0
-7 -21 -35 -46 -64 -41 -47 -63 -83 -78 -131 -3 -10 -25 -28 -49 -39 l-45 -22
-34 26 c-47 37 -78 107 -78 180 0 16 -7 45 -17 64 -16 34 -16 35 10 59 32 30
43 65 28 92 -18 33 -13 52 12 52 13 0 27 -4 33 -9z"/>
<path fill="#ffffff" stroke="none" d="M9867 4388 c42 -15 42 -32 1 -44 -44
-13 -46 -35 -5 -73 34 -32 34 -33 18 -66 -9 -19 -18 -34 -21 -34 -3 0 -43 35
-88 79 -83 78 -96 104 -62 120 8 4 24 12 35 18 27 15 81 15 122 0z"/>
<path fill="#ffffff" stroke="none" d="M9463 4323 c55 -51 54 -39 15 -185 -13
-47 -30 -94 -39 -105 -9 -10 -22 -33 -30 -50 -16 -39 -46 -44 -74 -13 -10 11
-27 20 -38 20 -11 0 -35 14 -54 31 -20 17 -51 38 -69 47 -39 18 -43 41 -14 67
11 10 25 38 31 61 15 59 82 130 144 154 28 10 57 19 65 19 8 0 37 -20 63 -46z"/>
<path fill="#000000" stroke="none" d="M1475 4969 c-4 -12 -2 -26 4 -32 14
-14 14 -44 0 -53 -6 -3 -23 6 -38 20 -27 26 -74 35 -86 16 -3 -5 -15 -10 -25
-10 -10 0 -40 -11 -65 -25 -39 -20 -60 -24 -123 -24 -43 1 -104 -2 -137 -6
-53 -7 -65 -13 -104 -51 -42 -43 -43 -46 -37 -91 6 -43 4 -48 -25 -73 -43 -35
-34 -65 24 -82 50 -14 77 -35 77 -58 0 -28 -22 -39 -93 -44 -68 -5 -164 -47
-178 -77 -49 -109 -97 -159 -209 -215 -33 -16 -85 -54 -115 -84 -83 -82 -71
-107 29 -66 68 28 86 24 111 -24 9 -17 31 -36 50 -44 34 -15 46 -38 25 -51
-19 -12 -10 -43 18 -63 22 -17 25 -23 15 -33 -23 -23 -15 -58 15 -71 15 -7 29
-13 31 -15 2 -1 -4 -14 -13 -27 -9 -14 -16 -41 -16 -59 0 -30 -5 -37 -43 -55
-23 -12 -50 -23 -60 -26 -43 -13 13 -56 73 -56 19 0 51 5 70 10 19 6 67 15
105 21 95 15 133 32 141 63 7 31 25 33 42 6 10 -17 23 -20 80 -20 37 0 72 -4
78 -9 13 -12 114 -22 114 -11 0 20 28 9 34 -13 6 -24 43 -47 75 -47 10 0 26
-11 35 -25 9 -14 25 -25 35 -25 33 0 105 36 131 65 64 73 135 136 159 141 14
4 48 22 75 42 48 34 50 34 77 18 25 -15 32 -15 63 -2 19 8 61 32 93 54 83 57
113 97 113 151 0 24 7 33 38 48 49 24 49 51 0 78 -54 28 -51 49 6 42 49 -7 86
14 86 50 0 10 4 23 10 29 19 19 14 100 -7 130 -29 41 -35 77 -18 100 8 10 15
34 15 52 0 18 5 42 10 52 7 13 7 26 1 37 -5 10 -15 32 -21 50 -28 75 -118 192
-191 248 l-50 38 -37 -17 c-36 -17 -37 -17 -55 5 -12 15 -16 31 -12 50 6 24 1
31 -35 55 -37 25 -44 26 -80 15 -41 -12 -62 -35 -99 -108 -12 -24 -28 -43 -37
-43 -9 0 -24 20 -35 48 -33 78 -43 96 -59 109 -23 19 -48 15 -55 -8z"/>
<path fill="#ffffff" stroke="none" d="M1310 4653 c0 -22 10 -47 26 -69 23
-30 27 -45 28 -113 1 -110 -31 -171 -90 -171 -18 0 -45 -5 -60 -10 -21 -8 -31
-7 -45 6 -11 10 -19 22 -19 27 0 6 -20 40 -44 76 -56 82 -95 193 -76 216 7 8
24 15 37 15 14 0 36 9 50 20 17 13 41 20 68 20 24 0 55 6 70 14 38 20 55 10
55 -31z"/>
<path fill="#ffffff" stroke="none" d="M1116 4107 c8 -23 -45 -117 -78 -137
-38 -23 -51 -17 -43 20 9 39 -23 57 -67 39 -25 -10 -31 -10 -39 2 -12 19 -23
59 -17 65 8 7 118 21 181 23 38 1 59 -3 63 -12z"/>
<path fill="#ffffff" stroke="none" d="M1519 4035 c31 -20 73 -43 94 -52 33
-15 37 -20 37 -54 0 -42 18 -65 67 -86 18 -7 33 -17 33 -23 0 -16 -43 -40 -72
-40 -49 0 -108 -41 -108 -75 0 -21 -17 -35 -41 -35 -5 0 -21 14 -36 31 -22 24
-33 29 -55 25 -62 -12 -98 32 -98 119 0 24 -11 63 -26 94 -23 49 -24 55 -10
77 9 13 16 30 16 38 0 9 13 16 33 19 64 9 109 -1 166 -38z"/>
<path fill="#000000" stroke="none" d="M3615 4450 c-4 -6 -23 -21 -44 -34 -21
-13 -45 -41 -56 -65 -11 -22 -23 -41 -27 -41 -5 0 -8 -16 -8 -35 0 -76 -34
-103 -86 -68 -23 15 -34 34 -79 138 -37 88 -109 124 -134 69 -10 -23 -9 -32
14 -66 21 -31 24 -42 14 -54 -19 -24 -63 -17 -97 16 -18 17 -35 30 -40 30 -4
0 -38 -16 -75 -35 -37 -19 -73 -35 -80 -35 -6 0 -32 -16 -56 -35 -24 -19 -44
-35 -45 -35 -1 -1 -59 -5 -131 -10 -201 -15 -206 -16 -265 -44 -92 -44 -101
-56 -124 -154 -11 -49 -11 -63 0 -83 23 -41 17 -65 -21 -87 -75 -45 -46 -122
46 -122 60 0 91 -14 113 -51 22 -37 13 -67 -22 -74 -15 -4 -43 -10 -62 -15
-19 -5 -57 -12 -84 -14 -48 -5 -57 -9 -131 -66 -22 -16 -48 -33 -57 -36 -20
-7 -44 -55 -53 -107 -14 -76 -161 -217 -301 -290 -90 -47 -224 -235 -194 -272
11 -13 17 -11 54 18 103 85 246 104 246 34 0 -13 9 -33 20 -45 19 -21 34 -24
115 -27 43 -1 43 -27 1 -66 -20 -18 -36 -40 -36 -50 0 -24 56 -62 81 -56 29 8
35 -20 10 -47 -11 -12 -21 -32 -21 -43 0 -30 39 -74 64 -72 44 3 56 -1 56 -21
0 -11 -6 -20 -13 -20 -8 0 -22 -9 -32 -20 -17 -19 -17 -22 -2 -61 15 -38 15
-43 -1 -64 -23 -31 -69 -60 -130 -81 -41 -15 -52 -23 -52 -41 0 -13 8 -25 23
-30 31 -11 203 -6 228 7 11 7 46 18 77 26 31 8 61 19 66 23 6 5 34 12 62 16
72 9 125 42 149 92 11 23 24 45 28 49 4 4 25 -10 47 -31 l40 -39 68 17 c88 22
117 22 152 -5 29 -21 30 -21 50 -3 20 18 22 18 50 1 53 -30 68 5 25 56 -20 23
-23 33 -15 49 15 26 47 24 55 -3 3 -13 12 -39 20 -58 7 -19 16 -47 19 -62 5
-19 13 -28 26 -28 11 0 29 -5 40 -12 15 -9 24 -9 44 1 32 17 56 8 56 -21 0
-42 14 -51 66 -46 99 10 179 65 223 154 14 27 55 79 92 116 59 58 73 68 103
68 30 0 37 4 42 25 4 15 20 32 38 41 17 9 45 29 62 45 30 29 30 29 49 9 42
-46 123 -12 250 103 41 38 90 90 110 117 l35 47 -17 41 c-15 38 -15 43 1 66 9
14 29 28 44 32 70 15 94 52 55 86 -21 17 -106 57 -143 68 -14 3 -27 15 -29 25
-3 17 4 17 90 13 128 -8 142 0 163 91 9 39 16 91 16 117 0 41 -6 54 -42 98
-39 46 -42 55 -43 107 0 43 5 62 19 78 17 19 18 26 7 56 -10 29 -10 38 5 60
16 25 16 27 -5 55 -11 16 -21 37 -21 46 0 9 -8 28 -18 42 -10 15 -24 40 -32
56 -27 54 -197 221 -278 274 -43 29 -85 52 -94 52 -8 0 -28 -11 -44 -25 -30
-25 -68 -32 -93 -16 -10 6 -15 30 -16 68 -1 32 -3 61 -4 64 -2 11 -128 69
-150 69 -11 0 -23 -5 -26 -10z"/>
<path fill="#ffffff" stroke="none" d="M2963 3952 c12 -13 15 -28 10 -56 -5
-34 -2 -40 34 -74 55 -52 88 -150 80 -243 -3 -37 -10 -75 -16 -86 -5 -10 -18
-37 -27 -60 -15 -36 -23 -43 -60 -52 -24 -6 -53 -11 -64 -11 -12 0 -38 -8 -57
-17 -42 -20 -61 -12 -85 38 -9 19 -48 69 -87 111 -79 87 -101 123 -101 167 0
20 -11 41 -35 67 -39 41 -45 64 -16 64 11 0 29 12 41 27 18 23 24 25 40 15 31
-19 47 -14 59 18 6 20 17 30 30 30 11 0 23 5 26 10 3 6 30 10 58 10 41 1 60 7
92 30 47 34 57 36 78 12z"/>
<path fill="#ffffff" stroke="none" d="M2767 3063 c-19 -127 -25 -140 -139
-255 -60 -60 -115 -120 -124 -133 -22 -34 -44 -32 -44 4 0 20 20 54 65 112 36
46 65 91 65 100 0 42 -72 53 -129 18 -30 -18 -36 -19 -48 -6 -12 12 -13 19 -3
38 11 20 10 25 -9 40 -12 10 -27 16 -34 14 -19 -8 -44 12 -31 25 15 15 317 77
383 79 l53 1 -5 -37z"/>
<path fill="#ffffff" stroke="none" d="M3288 3054 c34 -9 65 -21 68 -25 3 -5
12 -9 21 -9 8 0 40 -18 72 -40 39 -28 67 -40 91 -40 53 0 67 -13 51 -44 -29
-53 38 -136 108 -136 25 0 44 -7 56 -20 17 -18 16 -20 -13 -50 -17 -16 -41
-30 -54 -30 -32 0 -85 -20 -133 -49 -52 -32 -57 -40 -50 -78 4 -24 1 -37 -15
-53 -32 -32 -67 -26 -109 20 -41 45 -49 47 -97 24 -31 -15 -37 -15 -70 1 -48
23 -74 68 -74 131 0 66 -14 106 -62 178 -33 48 -39 64 -34 90 4 17 9 45 12 61
12 69 15 75 35 75 11 0 22 -7 25 -15 9 -22 28 -18 53 11 13 15 29 23 39 20 9
-2 45 -12 80 -22z"/>
<path fill="#000000" stroke="none" d="M7328 4376 c-25 -25 -50 -46 -56 -46
-5 0 -26 14 -47 30 -42 33 -48 35 -76 20 -31 -17 -22 -118 19 -197 9 -18 13
-35 9 -39 -12 -13 -37 6 -69 52 -49 71 -88 114 -104 114 -26 0 -154 -70 -194
-106 -35 -32 -40 -42 -40 -80 0 -38 -6 -51 -41 -89 -36 -39 -47 -45 -81 -45
-33 0 -42 -5 -56 -30 -12 -20 -26 -30 -46 -32 -26 -3 -33 -11 -63 -83 -18 -44
-37 -89 -42 -100 -31 -70 -45 -167 -45 -311 0 -173 10 -204 64 -204 17 0 39
-9 50 -20 32 -32 25 -64 -20 -100 -35 -28 -40 -37 -40 -74 0 -85 34 -146 81
-146 15 0 31 -4 34 -10 3 -5 22 -10 41 -10 19 0 34 5 34 10 0 6 17 10 38 10
21 0 55 9 76 20 29 14 44 17 57 9 31 -16 23 -68 -25 -165 -48 -96 -50 -125
-14 -164 18 -19 22 -20 41 -7 12 8 27 29 33 48 17 49 40 60 65 30 15 -19 18
-33 14 -65 -3 -23 -2 -45 2 -51 17 -22 180 -95 211 -95 29 0 49 -16 170 -139
149 -151 198 -183 281 -184 75 -1 161 42 161 82 1 21 24 51 39 51 6 0 23 -7
37 -17 23 -15 28 -15 60 0 42 20 45 53 10 100 -13 18 -29 48 -36 68 -11 32
-11 42 4 73 22 48 33 52 64 27 15 -12 46 -34 69 -50 23 -15 55 -42 72 -59 16
-18 38 -32 50 -32 11 0 38 -6 58 -13 111 -40 98 -40 190 -1 20 9 70 14 141 14
95 0 117 -3 166 -25 31 -14 67 -25 81 -25 13 0 26 -4 30 -9 5 -8 102 -34 130
-35 44 -1 155 18 182 31 44 20 38 35 -21 50 -72 18 -158 66 -183 102 l-22 32
25 48 c23 44 24 81 3 81 -5 0 -9 11 -9 25 0 18 -9 31 -30 43 -36 21 -42 58 -7
48 55 -16 107 -18 122 -6 22 19 18 55 -11 89 -32 39 -24 54 26 46 31 -5 43 -2
59 14 26 26 27 55 2 95 -25 40 -15 61 22 47 35 -13 50 -7 82 35 19 25 34 34
55 34 34 0 103 -25 142 -52 31 -21 67 -24 74 -4 20 52 -126 194 -281 274 -22
11 -51 32 -65 47 -29 31 -94 65 -124 65 -12 0 -35 -9 -53 -19 -41 -26 -57 -11
-43 40 14 48 13 54 -12 77 -125 111 -130 116 -124 144 7 33 -17 61 -45 53 -20
-7 -22 -1 -19 47 3 59 -54 35 -66 -28 -5 -27 -11 -34 -30 -34 -35 0 -38 16 -9
57 14 21 25 42 25 48 0 6 9 18 20 28 21 18 27 52 10 62 -5 3 -10 14 -10 25 0
10 -15 27 -36 39 l-36 21 26 31 c14 17 26 35 26 40 0 18 -64 69 -119 96 -59
30 -90 32 -222 18 -83 -9 -168 8 -206 40 -32 28 -37 29 -63 15 -14 -8 -28 -5
-56 11 -27 15 -47 19 -71 14 l-33 -6 0 41 c0 45 -9 58 -55 82 -62 33 -151 51
-266 56 l-116 4 -45 -46z"/>
<path fill="#ffffff" stroke="none" d="M7873 4061 c46 -42 150 -81 172 -65 63
47 65 47 92 33 34 -18 45 -51 37 -109 -6 -48 -6 -49 33 -74 27 -18 43 -38 51
-63 14 -45 7 -59 -63 -133 -58 -62 -77 -94 -95 -160 -17 -65 -36 -90 -68 -90
-15 0 -38 -9 -52 -20 -36 -28 -56 -25 -63 10 -5 25 -11 30 -35 30 -16 0 -36 8
-44 18 -36 40 -73 151 -83 246 -5 47 -15 80 -31 104 -32 46 -31 62 4 62 23 0
32 7 45 35 23 49 22 111 -3 142 -20 26 -26 54 -13 66 3 4 21 7 40 7 25 0 44
-10 76 -39z"/>
<path fill="#ffffff" stroke="none" d="M8370 3165 c27 -10 80 -15 146 -15 79
0 104 -3 104 -13 0 -30 -25 -37 -130 -37 -112 0 -150 -12 -150 -49 0 -21 44
-63 85 -82 39 -18 43 -42 9 -58 -24 -10 -26 -16 -20 -50 3 -21 3 -41 0 -44 -9
-8 -50 19 -110 72 -28 26 -70 62 -95 81 -24 19 -59 51 -77 72 -44 48 -37 71
26 93 26 9 58 22 72 30 33 19 87 19 140 0z"/>
<path fill="#ffffff" stroke="none" d="M7732 3082 c7 -10 41 -40 76 -66 34
-26 62 -54 62 -61 0 -8 -9 -29 -19 -47 -20 -35 -41 -128 -41 -185 0 -35 -30
-104 -60 -138 -10 -11 -23 -44 -31 -72 -12 -50 -30 -66 -44 -43 -4 6 -21 8
-40 4 -31 -5 -33 -4 -40 24 -7 35 -30 59 -40 42 -13 -21 -51 -8 -95 31 -61 55
-85 70 -123 78 -29 6 -32 11 -32 41 0 26 6 37 24 46 33 17 41 32 41 85 0 35 7
55 30 85 16 21 30 44 30 50 0 15 60 69 100 90 106 54 180 67 202 36z"/>
<path fill="#000000" stroke="none" d="M3945 2360 c-14 -22 -31 -40 -38 -40
-7 0 -26 14 -42 30 -23 24 -37 30 -70 30 -45 0 -61 -12 -88 -65 -9 -18 -12
-37 -7 -45 4 -8 10 -38 14 -67 6 -46 4 -52 -14 -58 -14 -4 -36 3 -68 23 -58
38 -97 48 -117 32 -24 -20 -17 -44 16 -63 37 -20 33 -41 -7 -44 -16 0 -37 -2
-46 -2 -19 -1 -98 -108 -98 -133 0 -9 -19 -32 -42 -50 -24 -18 -73 -63 -109
-100 -53 -53 -68 -75 -74 -107 -9 -57 1 -94 37 -126 22 -20 27 -30 19 -38 -16
-16 -14 -52 4 -67 12 -10 24 -9 61 5 101 38 125 -10 44 -90 -27 -27 -50 -55
-50 -62 0 -7 -10 -31 -21 -53 -19 -36 -20 -46 -10 -79 6 -21 11 -53 11 -72 0
-53 -30 -159 -62 -220 -25 -48 -29 -64 -26 -124 2 -41 8 -70 15 -72 6 -2 28
21 47 51 30 47 40 56 65 56 17 0 33 -4 36 -10 11 -18 51 -11 90 15 20 15 40
24 42 21 3 -3 0 -19 -6 -36 -7 -22 -7 -38 0 -51 10 -20 49 -27 49 -8 0 6 8 9
18 7 12 -2 16 -11 14 -30 -4 -33 24 -50 67 -42 29 6 31 4 31 -21 0 -16 9 -36
21 -46 12 -10 22 -30 22 -43 0 -13 -10 -38 -22 -54 -29 -41 -27 -62 5 -62 18
0 43 18 87 63 120 123 157 166 158 184 4 83 2 78 37 75 26 -3 41 4 72 32 22
20 49 36 60 36 11 0 28 9 37 20 10 11 22 20 27 20 5 0 20 10 33 22 18 17 27
19 45 11 25 -11 78 2 78 19 0 6 15 7 38 3 35 -6 42 -3 69 29 37 41 53 87 51
141 -5 87 2 132 22 155 11 13 23 35 26 49 15 68 32 96 60 101 35 6 74 61 74
105 0 17 3 35 7 39 9 9 32 95 33 122 0 12 -9 33 -20 47 -24 31 -25 54 -3 79
28 32 6 53 -56 53 -28 0 -51 5 -51 10 0 6 17 21 37 35 46 32 51 54 22 120 -26
60 -60 90 -104 90 -34 0 -55 28 -55 73 0 31 -51 104 -91 131 -19 13 -52 29
-74 35 -22 7 -49 16 -60 20 -45 18 -119 31 -180 31 -65 0 -65 0 -90 -40z"/>
<path fill="#ffffff" stroke="none" d="M3564 1821 c15 -15 44 -33 65 -40 59
-17 116 -79 135 -144 9 -30 16 -60 16 -67 0 -6 -23 -34 -50 -61 -40 -40 -55
-49 -73 -44 -12 4 -26 11 -31 16 -6 5 -20 9 -31 9 -12 0 -25 3 -29 7 -4 4 -24
13 -44 19 -20 6 -63 28 -95 48 -51 33 -58 41 -53 62 4 14 15 33 26 44 11 11
20 26 20 33 0 7 16 29 36 48 19 18 42 49 49 67 17 39 24 40 59 3z"/>
<path fill="#ffffff" stroke="none" d="M4272 1480 c20 -35 60 -47 101 -32 55
21 63 -10 18 -67 -47 -61 -54 -79 -41 -111 7 -16 9 -38 5 -50 -6 -18 -14 -20
-51 -19 -36 2 -49 -2 -72 -24 -41 -40 -67 -35 -120 23 -26 27 -70 61 -99 75
-40 20 -53 32 -58 55 -4 17 -11 30 -16 30 -5 0 -9 9 -9 20 0 11 5 20 10 20 6
0 22 11 36 25 38 39 61 47 145 52 44 3 87 12 97 19 25 20 35 17 54 -16z"/>
<path fill="#ffffff" stroke="none" d="M3767 1245 c24 -66 25 -78 4 -130 -21
-55 -31 -57 -46 -11 -13 40 -40 44 -76 11 -26 -26 -30 -27 -59 -15 -16 7 -30
18 -30 24 0 23 164 170 183 163 5 -1 16 -21 24 -42z"/>
<path fill="#000000" stroke="none" d="M6845 2367 c-11 -7 -32 -20 -47 -29
-33 -22 -52 -23 -84 -1 -43 28 -119 26 -178 -5 -72 -37 -143 -91 -199 -150
-64 -70 -75 -94 -53 -127 26 -40 -1 -75 -58 -75 -25 0 -60 -33 -71 -67 -15
-50 72 -143 134 -143 14 0 21 -6 21 -18 0 -25 -26 -47 -75 -63 -43 -14 -95
-55 -95 -75 0 -6 7 -17 15 -24 13 -11 20 -11 39 0 43 23 63 -12 26 -45 -28
-25 -25 -50 17 -130 34 -66 36 -77 43 -195 7 -141 21 -185 70 -220 26 -19 39
-21 80 -16 45 6 51 4 66 -19 22 -33 57 -33 72 0 7 14 12 32 12 39 0 20 39 66
56 66 19 0 44 -59 44 -105 0 -23 13 -59 37 -100 32 -55 44 -68 82 -82 44 -17
126 -90 142 -128 43 -99 130 -210 174 -221 38 -9 42 2 18 49 -41 82 -38 129
10 141 26 6 47 43 47 81 0 32 7 31 41 -1 23 -22 30 -24 48 -15 12 7 21 19 21
28 0 12 7 14 36 10 41 -7 74 6 74 29 0 20 27 29 45 14 9 -7 27 -10 44 -7 36 7
81 -30 81 -66 0 -33 23 -62 44 -54 13 5 16 22 16 90 0 50 -6 102 -15 127 -8
23 -15 54 -15 69 -1 37 -36 111 -54 111 -24 0 -29 19 -11 46 10 15 18 53 20
92 2 37 7 88 10 115 5 33 3 52 -6 64 -11 12 -11 17 -2 20 33 11 63 46 63 73 0
19 8 33 25 44 44 29 24 120 -38 170 -94 75 -124 107 -135 145 -7 21 -19 42
-27 45 -9 3 -20 16 -25 28 -6 13 -16 31 -22 40 -10 14 -10 22 0 38 20 33 14
54 -38 134 -27 42 -50 81 -50 86 0 5 -18 21 -39 36 -31 20 -47 24 -70 19 -25
-5 -32 -3 -38 12 -21 60 -73 71 -99 21 -36 -70 -58 -74 -43 -7 12 50 -7 86
-49 94 -15 4 -35 10 -44 16 -24 12 -69 10 -93 -4z"/>
<path fill="#ffffff" stroke="none" d="M7325 1844 c8 -20 15 -43 15 -51 0 -27
40 -73 64 -73 51 0 61 -48 19 -92 -21 -22 -26 -37 -25 -66 4 -54 -14 -73 -68
-73 -47 -1 -101 -15 -162 -44 -32 -16 -40 -16 -79 -3 -42 14 -43 14 -46 68 -3
57 28 144 68 186 11 12 23 34 28 50 6 25 14 30 48 35 35 4 73 27 73 43 0 2 4
16 10 30 14 37 37 32 55 -10z"/>
<path fill="#ffffff" stroke="none" d="M6755 1469 c62 -29 60 -26 77 -143 2
-13 -8 -27 -30 -40 -18 -12 -56 -38 -83 -59 -28 -21 -65 -43 -82 -49 -18 -5
-47 -17 -65 -26 -33 -17 -34 -16 -52 6 -11 13 -17 29 -14 37 3 7 -3 26 -13 41
-10 15 -24 55 -31 88 -21 101 -21 101 17 104 19 2 45 11 59 20 69 45 149 53
217 21z"/>
<path fill="#ffffff" stroke="none" d="M7086 1231 c41 -18 104 -84 104 -108 0
-7 -9 -13 -20 -13 -11 0 -20 5 -20 10 0 16 -36 12 -50 -5 -10 -12 -11 -24 -2
-51 10 -34 9 -35 -25 -49 -25 -11 -40 -12 -48 -5 -13 11 -31 213 -20 230 9 15
35 12 81 -9z"/>
<path fill="#000000" stroke="none" d="M5340 2101 c-14 -5 -47 -14 -75 -20
-54 -13 -156 -59 -167 -76 -4 -5 -8 -24 -8 -41 0 -46 -24 -62 -60 -41 -39 24
-54 21 -94 -13 -31 -27 -34 -35 -30 -68 10 -71 14 -81 50 -116 32 -31 35 -38
23 -52 -11 -14 -26 -15 -90 -10 -67 5 -79 4 -100 -13 -20 -16 -22 -23 -13 -38
6 -10 20 -20 30 -22 32 -6 46 -22 33 -37 -6 -8 -17 -14 -25 -14 -33 0 -44 -30
-44 -124 0 -81 -4 -100 -28 -152 -49 -103 -65 -160 -60 -221 4 -47 10 -60 34
-80 16 -12 39 -23 52 -23 16 0 25 -8 32 -27 25 -71 48 -78 93 -30 36 39 66 56
85 50 17 -6 15 -74 -3 -109 -9 -19 -15 -57 -15 -106 0 -75 2 -80 34 -115 18
-21 40 -58 47 -83 7 -25 16 -49 21 -54 4 -6 8 -53 8 -105 0 -53 6 -112 13
-131 35 -98 84 -132 80 -55 -2 22 4 59 13 82 16 40 19 43 54 43 26 0 43 7 60
25 13 14 31 25 40 25 9 0 22 -11 28 -25 14 -31 35 -32 63 -4 l21 21 19 -31
c22 -36 37 -39 67 -11 l22 21 43 -33 c58 -45 58 -45 55 -113 -2 -54 0 -60 19
-63 39 -6 67 51 107 217 30 120 32 154 11 171 -21 17 -19 40 3 40 23 0 52 30
52 53 0 9 5 19 10 22 6 3 10 15 10 26 0 10 9 24 20 31 11 7 32 36 46 64 19 38
34 54 60 63 20 7 40 24 49 42 11 19 23 29 39 29 38 0 51 26 51 100 0 54 -5 74
-25 106 -28 43 -54 132 -45 155 3 8 1 44 -4 79 -9 62 -8 66 15 87 21 20 24 30
24 97 0 41 -4 78 -10 81 -5 3 -10 17 -10 30 0 50 -40 115 -71 115 -26 0 -43
35 -29 61 23 42 -27 64 -76 33 -33 -22 -56 -4 -32 23 27 32 28 62 2 88 -61 62
-89 75 -151 75 -52 0 -64 4 -94 30 -79 69 -105 80 -182 79 -40 0 -83 -4 -97
-8z"/>
<path fill="#ffffff" stroke="none" d="M5933 1340 c-6 -142 -6 -141 22 -170
34 -35 28 -54 -22 -77 -23 -11 -45 -32 -57 -55 -11 -21 -28 -40 -38 -44 -10
-3 -45 4 -78 15 -35 12 -85 21 -119 21 -46 0 -63 4 -73 18 -7 10 -21 21 -30
25 -20 7 -24 32 -8 42 6 3 10 19 10 35 0 22 12 39 54 75 29 26 66 53 82 61 16
9 39 25 51 36 20 18 27 20 48 10 42 -19 71 -14 102 18 37 40 59 36 56 -10z"/>
<path fill="#ffffff" stroke="none" d="M5002 1309 c15 -8 26 -8 43 1 13 7 37
10 54 6 17 -3 45 -9 61 -12 36 -8 128 -87 136 -118 3 -12 -2 -35 -10 -51 -9
-17 -16 -38 -16 -47 0 -28 -28 -48 -59 -42 -15 3 -52 -1 -82 -10 -79 -24 -192
-13 -214 20 -14 22 -14 26 1 48 11 18 13 30 6 43 -7 12 -5 32 10 71 11 29 17
60 14 68 -12 32 16 44 56 23z"/>
<path fill="#ffffff" stroke="none" d="M5443 883 c26 -28 39 -53 48 -91 13
-65 0 -89 -26 -48 -27 41 -75 29 -75 -20 0 -29 -20 -43 -53 -37 -35 7 -38 13
-27 49 13 42 58 163 65 174 11 18 31 10 68 -27z"/>
</g>
</svg>
